<svg width="30" height="30" fill="none" xmlns="http://www.w3.org/2000/svg"><path d="M21 15.744V20h-2.572v-3.97c0-.998-.372-1.68-1.303-1.68-.71 0-1.134.46-1.32.903-.067.16-.085.38-.085.602V20h-2.573s.035-6.725 0-7.422h2.573v1.052l-.017.024h.017v-.024c.342-.505.952-1.227 2.318-1.227 1.693 0 2.962 1.061 2.962 3.341zM10.456 9C9.576 9 9 9.554 9 10.282c0 .713.559 1.283 1.422 1.283h.017c.897 0 1.455-.57 1.455-1.283C11.877 9.554 11.336 9 10.456 9zM9.153 20h2.572v-7.422H9.153V20z" fill="#565D63"/><circle cx="15" cy="15" r="14.5" stroke="#565D63"/></svg>