<svg width="30" height="30" fill="none" xmlns="http://www.w3.org/2000/svg"><path d="M7.23 15.274l2.995 1.087 1.16 3.624a.357.357 0 00.56.164l1.67-1.323a.51.51 0 01.607-.017l3.011 2.125a.356.356 0 00.553-.207l2.206-10.313c.057-.266-.212-.488-.472-.39L7.226 14.633a.34.34 0 00.004.642zm3.968.509l5.854-3.505c.105-.062.213.076.123.157L12.344 16.8a.964.964 0 00-.31.582l-.165 1.186c-.022.158-.251.174-.296.02l-.633-2.16a.566.566 0 01.258-.645z" fill="#565D63"/><circle cx="15" cy="15" r="14.5" stroke="#565D63"/></svg>