<svg width="30" height="30" fill="none" xmlns="http://www.w3.org/2000/svg"><path d="M22 11.302c-.479.22-.992.37-1.531.437a2.78 2.78 0 001.172-1.536 5.246 5.246 0 01-1.695.675A2.611 2.611 0 0018 10c-1.473 0-2.667 1.244-2.667 2.777 0 .218.024.43.07.633-2.217-.116-4.182-1.222-5.497-2.902-.23.41-.36.887-.36 1.396 0 .964.47 1.814 1.185 2.312a2.586 2.586 0 01-1.208-.349v.035c0 1.345.92 2.468 2.14 2.724a2.6 2.6 0 01-.704.097 2.53 2.53 0 01-.502-.051c.34 1.104 1.324 1.907 2.491 1.929A5.217 5.217 0 019 19.751 7.32 7.32 0 0013.088 21c4.906 0 7.587-4.233 7.587-7.904l-.009-.36A5.462 5.462 0 0022 11.302z" fill="#565D63"/><circle cx="15" cy="15" r="14.5" stroke="#565D63"/></svg>