<svg width="18" height="16" viewBox="0 0 18 16" fill="none" xmlns="http://www.w3.org/2000/svg">
<path fill-rule="evenodd" clip-rule="evenodd" d="M5.15331 0.973122C7.84963 0.769902 10.5579 0.783236 13.2521 1.013L14.8758 1.15147C16.1023 1.25606 17.0977 2.18688 17.2842 3.40363L17.3867 4.07195C17.7343 6.33986 17.7018 8.64983 17.2905 10.9071C17.0876 12.0208 16.1174 12.8302 14.9853 12.8302H6.00893C5.80241 12.8302 5.59911 12.8814 5.4172 12.9791L1.50641 15.0808C1.27397 15.2058 0.992998 15.1993 0.766516 15.0639C0.540033 14.9285 0.401367 14.6841 0.401367 14.4202V5.90291C0.401367 3.32431 2.38877 1.18148 4.96008 0.987686L5.15331 0.973122ZM5.15137 5.92021C4.46101 5.92021 3.90137 6.47986 3.90137 7.17021C3.90137 7.86057 4.46101 8.42021 5.15137 8.42021C5.84172 8.42021 6.40137 7.86057 6.40137 7.17021C6.40137 6.47986 5.84172 5.92021 5.15137 5.92021ZM9.15137 5.92021C8.46101 5.92021 7.90137 6.47986 7.90137 7.17021C7.90137 7.86057 8.46101 8.42021 9.15137 8.42021C9.84172 8.42021 10.4014 7.86057 10.4014 7.17021C10.4014 6.47986 9.84172 5.92021 9.15137 5.92021ZM11.9014 7.17021C11.9014 6.47986 12.461 5.92021 13.1514 5.92021C13.8417 5.92021 14.4014 6.47986 14.4014 7.17021C14.4014 7.86057 13.8417 8.42021 13.1514 8.42021C12.461 8.42021 11.9014 7.86057 11.9014 7.17021Z" fill="white"/>
</svg>
