<svg width="18" height="16" viewBox="0 0 18 16" fill="none" xmlns="http://www.w3.org/2000/svg">
<path fill-rule="evenodd" clip-rule="evenodd" d="M5.15184 0.973122C7.84817 0.769902 10.5564 0.783236 13.2506 1.013L14.8744 1.15147C16.1009 1.25606 17.0963 2.18688 17.2828 3.40363L17.3852 4.07195C17.7328 6.33986 17.7004 8.64983 17.2891 10.9071C17.0861 12.0208 16.116 12.8302 14.9839 12.8302H6.00746C5.80094 12.8302 5.59764 12.8814 5.41573 12.9791L1.50494 15.0808C1.27251 15.2058 0.991533 15.1993 0.765051 15.0639C0.538568 14.9285 0.399902 14.6841 0.399902 14.4202V5.90291C0.399902 3.32431 2.38731 1.18148 4.95861 0.987686L5.15184 0.973122ZM5.1499 5.92021C4.45955 5.92021 3.8999 6.47986 3.8999 7.17021C3.8999 7.86057 4.45955 8.42021 5.1499 8.42021C5.84026 8.42021 6.3999 7.86057 6.3999 7.17021C6.3999 6.47986 5.84026 5.92021 5.1499 5.92021ZM9.1499 5.92021C8.45955 5.92021 7.8999 6.47986 7.8999 7.17021C7.8999 7.86057 8.45955 8.42021 9.1499 8.42021C9.84026 8.42021 10.3999 7.86057 10.3999 7.17021C10.3999 6.47986 9.84026 5.92021 9.1499 5.92021ZM11.8999 7.17021C11.8999 6.47986 12.4595 5.92021 13.1499 5.92021C13.8403 5.92021 14.3999 6.47986 14.3999 7.17021C14.3999 7.86057 13.8403 8.42021 13.1499 8.42021C12.4595 8.42021 11.8999 7.86057 11.8999 7.17021Z" fill="#D8DADB"/>
</svg>
