<svg width="16" height="6" viewBox="0 0 16 6" fill="none" xmlns="http://www.w3.org/2000/svg">
<path d="M15.2013 0.472464C15.2013 2.10475 14.7932 3.42988 13.9771 4.44786C13.161 5.46585 12.1079 5.97484 10.8178 5.97484C10.1684 5.97484 9.56292 5.85198 9.00127 5.60626C8.4484 5.35176 7.80777 4.87787 7.07939 4.18459C6.351 3.48254 5.67966 3.13151 5.06536 3.13151C4.55637 3.13151 4.14391 3.3509 3.82798 3.78969C3.51206 4.22847 3.35409 4.79012 3.35409 5.47462L0.523926 5.4483C0.523926 3.81601 0.918833 2.50404 1.70865 1.51239C2.50724 0.52073 3.56471 0.0249023 4.88107 0.0249023C5.56558 0.0249023 6.18865 0.156538 6.7503 0.41981C7.31194 0.683081 7.94818 1.15697 8.65902 1.84148C9.37863 2.51721 10.0324 2.85507 10.6204 2.85507C11.1382 2.85507 11.5594 2.62251 11.8841 2.1574C12.2176 1.69229 12.3843 1.12625 12.3843 0.4593L15.2013 0.472464Z" fill="#E4E6E7"/>
</svg>
