<svg width="19" height="14" viewBox="0 0 19 14" fill="none" xmlns="http://www.w3.org/2000/svg">
<path d="M7.19366 6.99986C7.19366 7.59789 7.4359 8.17143 7.86709 8.59431C8.29828 9.01718 8.88309 9.25475 9.49288 9.25475C10.1027 9.25475 10.6875 9.01718 11.1187 8.59431C11.5499 8.17143 11.7921 7.59789 11.7921 6.99986C11.7921 6.40182 11.5499 5.82828 11.1187 5.40541C10.6875 4.98254 10.1027 4.74497 9.49288 4.74497C8.88309 4.74497 8.29828 4.98254 7.86709 5.40541C7.4359 5.82828 7.19366 6.40182 7.19366 6.99986ZM18.4064 6.48043C16.4603 2.45988 13.5186 0.436523 9.575 0.436523C5.62938 0.436523 2.68967 2.45988 0.743544 6.48244C0.665484 6.64455 0.625 6.82159 0.625 7.00086C0.625 7.18014 0.665484 7.35718 0.743544 7.51929C2.68967 11.5398 5.63143 13.5632 9.575 13.5632C13.5206 13.5632 16.4603 11.5398 18.4064 7.51727C18.5645 7.19112 18.5645 6.81262 18.4064 6.48043ZM9.49288 10.5433C7.49749 10.5433 5.87983 8.95678 5.87983 6.99986C5.87983 5.04294 7.49749 3.45646 9.49288 3.45646C11.4883 3.45646 13.1059 5.04294 13.1059 6.99986C13.1059 8.95678 11.4883 10.5433 9.49288 10.5433Z" fill="white"/>
</svg>
