<svg width="19" height="14" viewBox="0 0 19 14" fill="none" xmlns="http://www.w3.org/2000/svg">
<path d="M7.19269 6.99986C7.19269 7.59789 7.43493 8.17143 7.86611 8.59431C8.2973 9.01718 8.88211 9.25475 9.4919 9.25475C10.1017 9.25475 10.6865 9.01718 11.1177 8.59431C11.5489 8.17143 11.7911 7.59789 11.7911 6.99986C11.7911 6.40182 11.5489 5.82828 11.1177 5.40541C10.6865 4.98254 10.1017 4.74497 9.4919 4.74497C8.88211 4.74497 8.2973 4.98254 7.86611 5.40541C7.43493 5.82828 7.19269 6.40182 7.19269 6.99986ZM18.4055 6.48043C16.4593 2.45988 13.5176 0.436523 9.57402 0.436523C5.6284 0.436523 2.68869 2.45988 0.742567 6.48244C0.664507 6.64455 0.624023 6.82159 0.624023 7.00086C0.624023 7.18014 0.664507 7.35718 0.742567 7.51929C2.68869 11.5398 5.63045 13.5632 9.57402 13.5632C13.5196 13.5632 16.4593 11.5398 18.4055 7.51727C18.5635 7.19112 18.5635 6.81262 18.4055 6.48043ZM9.4919 10.5433C7.49651 10.5433 5.87885 8.95678 5.87885 6.99986C5.87885 5.04294 7.49651 3.45646 9.4919 3.45646C11.4873 3.45646 13.105 5.04294 13.105 6.99986C13.105 8.95678 11.4873 10.5433 9.4919 10.5433Z" fill="#E4E6E7"/>
</svg>
