<svg width="30" height="30" viewBox="0 0 30 30" fill="none" xmlns="http://www.w3.org/2000/svg">
<path d="M18.6987 8.00312L16.7799 8C14.6242 8 13.231 9.44892 13.231 11.6915V13.3936H11.3017C11.135 13.3936 11 13.5306 11 13.6996V16.1656C11 16.3346 11.1352 16.4715 11.3017 16.4715H13.231V22.6941C13.231 22.8631 13.366 23 13.5327 23H16.0499C16.2166 23 16.3517 22.863 16.3517 22.6941V16.4715H18.6075C18.7742 16.4715 18.9092 16.3346 18.9092 16.1656L18.9101 13.6996C18.9101 13.6184 18.8782 13.5407 18.8217 13.4833C18.7652 13.4259 18.6883 13.3936 18.6082 13.3936H16.3517V11.9507C16.3517 11.2572 16.5147 10.9052 17.4058 10.9052L18.6984 10.9047C18.865 10.9047 19 10.7677 19 10.5989V8.30898C19 8.14029 18.8652 8.00343 18.6987 8.00312Z" fill="#565D63"/>
<circle cx="15" cy="15" r="14.5" stroke="#565D63"/>
</svg>
