<svg width="30" height="30" viewBox="0 0 30 30" fill="none" xmlns="http://www.w3.org/2000/svg">
<path d="M21 15.7441V20H18.428V16.0291C18.428 15.0316 18.056 14.3508 17.125 14.3508C16.4143 14.3508 15.9914 14.8096 15.8054 15.2534C15.7375 15.4121 15.72 15.6329 15.72 15.855V20H13.1472C13.1472 20 13.1818 13.2746 13.1472 12.5778H15.7198V13.6299C15.7146 13.6378 15.7078 13.6463 15.7029 13.6539H15.7198V13.6299C16.0616 13.1249 16.672 12.4035 18.0383 12.4035C19.731 12.4035 21 13.4643 21 15.7441ZM10.4559 9C9.5757 9 9 9.55382 9 10.2821C9 10.9946 9.55905 11.5652 10.4217 11.5652H10.4389C11.3361 11.5652 11.8941 10.9947 11.8941 10.2821C11.8772 9.55382 11.3361 9 10.4559 9ZM9.1528 20H11.7247V12.5778H9.1528V20Z" fill="#565D63"/>
<circle cx="15" cy="15" r="14.5" stroke="#565D63"/>
</svg>
