<svg width="30" height="30" viewBox="0 0 30 30" fill="none" xmlns="http://www.w3.org/2000/svg">
<path d="M7.22962 15.2745L10.2251 16.361L11.3845 19.9847C11.4587 20.2168 11.7507 20.3026 11.9446 20.1486L13.6143 18.8257C13.7893 18.6871 14.0386 18.6802 14.2215 18.8092L17.2331 20.9342C17.4404 21.0806 17.7342 20.9702 17.7862 20.7267L19.9923 10.4135C20.0491 10.1475 19.7802 9.92565 19.5196 10.0236L7.22611 14.6325C6.92273 14.7462 6.92537 15.1637 7.22962 15.2745ZM11.1977 15.7826L17.0519 12.2785C17.1571 12.2157 17.2654 12.3539 17.175 12.4354L12.3436 16.8C12.1737 16.9536 12.0642 17.1592 12.0332 17.3824L11.8686 18.5677C11.8468 18.726 11.618 18.7417 11.5731 18.5885L10.9401 16.4271C10.8676 16.1805 10.9733 15.9172 11.1977 15.7826Z" fill="#565D63"/>
<circle cx="15" cy="15" r="14.5" stroke="#565D63"/>
</svg>
