<svg width="30" height="30" viewBox="0 0 30 30" fill="none" xmlns="http://www.w3.org/2000/svg">
<path d="M22 11.3015C21.5215 11.5223 21.0081 11.6721 20.4687 11.739C21.0195 11.3954 21.4411 10.8504 21.6409 10.2031C21.1243 10.5213 20.554 10.7523 19.9464 10.8775C19.4598 10.3368 18.7676 10 18 10C16.5272 10 15.333 11.2439 15.333 12.7773C15.333 12.9948 15.3566 13.2072 15.4021 13.4103C13.186 13.2943 11.2209 12.1883 9.90575 10.5077C9.67585 10.9173 9.54507 11.3945 9.54507 11.904C9.54507 12.8678 10.0162 13.7183 10.7311 14.2158C10.2941 14.2006 9.883 14.0754 9.52314 13.8672V13.9019C9.52314 15.2474 10.4427 16.3703 11.6621 16.6259C11.4387 16.6885 11.2031 16.7232 10.9594 16.7232C10.7872 16.7232 10.6206 16.7054 10.4573 16.6716C10.7969 17.7759 11.7815 18.5789 12.948 18.601C12.0357 19.3456 10.8854 19.7882 9.63607 19.7882C9.4208 19.7882 9.20877 19.7747 9 19.7501C10.1803 20.5397 11.5817 21 13.0877 21C17.9935 21 20.6751 16.7672 20.6751 13.0963L20.6661 12.7367C21.1901 12.3474 21.6434 11.8583 22 11.3015Z" fill="#565D63"/>
<circle cx="15" cy="15" r="14.5" stroke="#565D63"/>
</svg>
