<svg width="20" height="20" viewBox="0 0 20 20" fill="none" xmlns="http://www.w3.org/2000/svg">
<path fill-rule="evenodd" clip-rule="evenodd" d="M18.69 9.74C18.62 9.83 18.55 9.91 18.47 10C18.39 10.09 18.31 10.17 18.23 10.26C18.22 10.27 18.21 10.28 18.2 10.29C17.11 11.35 15.63 12 14 12C10.69 12 8 9.31 8 6C8 4.37 8.65 2.89 9.71 1.8C9.72 1.79 9.73 1.78 9.74 1.77C9.83 1.69 9.91 1.61 10 1.53C10.08 1.46 10.17 1.38 10.26 1.31C10.74 0.92 10.62 0 10 0C9.74 0 9.48 0.01 9.23 0.03C9.15 0.04 9.06 0.04 8.98 0.05C8.97 0.05 8.96 0.05 8.95 0.05C3.92 0.58 0 4.83 0 10C0 15.52 4.48 20 10 20C15.17 20 19.42 16.08 19.95 11.05C19.95 11.04 19.95 11.03 19.95 11.02C19.96 10.94 19.97 10.85 19.97 10.77C19.99 10.52 20 10.26 20 10C20 9.38 19.08 9.26 18.69 9.74ZM10 18.2C5.47 18.2 1.8 14.53 1.8 10C1.8 7.16 3.33 4.8 5.44 3.21C5.83 2.91 6.24 2.61 6.67 2.34C7.09 2.07 7.55 1.87 8 1.67C7.88 1.74 6.96 3.03 6.7 3.65C6.36 4.39 6.2 5.18 6.2 6C6.2 10.31 9.69 13.8 14 13.8C14.67 13.8 15.34 13.69 15.99 13.5C16.38 13.38 16.77 13.25 17.13 13.06C17.52 12.85 17.83 12.58 18.14 12.27C18.22 12.19 18.32 12.06 18.43 12.01C18.12 13.11 16.73 14.94 16.06 15.63C15.34 16.38 14.47 17 13.52 17.43C12.54 17.88 11.48 18.14 10.4 18.19C10.27 18.2 10.13 18.2 10 18.2Z" fill="#242A30"/>
</svg>
