<svg width="21" height="20" viewBox="0 0 21 20" fill="none" xmlns="http://www.w3.org/2000/svg">
<path fill-rule="evenodd" clip-rule="evenodd" d="M13.4341 4.63634C15.8639 7.06617 15.8639 11.0057 13.4341 13.4355C11.0042 15.8654 7.0647 15.8654 4.63487 13.4355C2.20504 11.0057 2.20504 7.06617 4.63487 4.63634C7.0647 2.20651 11.0042 2.20651 13.4341 4.63634ZM16.1898 14.026C18.5679 10.6243 18.2386 5.90535 15.2018 2.86857C11.7957 -0.537571 6.27325 -0.537571 2.86711 2.86857C-0.539035 6.27471 -0.539035 11.7972 2.86711 15.2033C6.04167 18.3779 11.0545 18.5937 14.4791 15.8508L18.6282 20L20.396 18.2322L16.1898 14.026Z" fill="#242A30"/>
</svg>
