<svg width="14" height="14" viewBox="0 0 14 14" fill="none" xmlns="http://www.w3.org/2000/svg">
<path d="M7.00114 3.49365C5.06762 3.49365 3.49463 5.06695 3.49463 7.00048C3.49463 8.93401 5.06762 10.5073 7.00114 10.5073C8.93436 10.5073 10.5077 8.93432 10.5077 7.00048C10.5077 5.06664 8.93436 3.49365 7.00114 3.49365Z" fill="#FFC107"/>
<path d="M7.0006 2.46271C6.6227 2.46271 6.31641 2.15642 6.31641 1.77883V0.684191C6.31641 0.306289 6.6227 0 7.0006 0C7.3785 0 7.68479 0.306289 7.68479 0.684191V1.77883C7.68479 2.15642 7.37819 2.46271 7.0006 2.46271Z" fill="#FFC107"/>
<path d="M7.0006 11.5366C6.6227 11.5366 6.31641 11.8429 6.31641 12.2208V13.3151C6.31641 13.6934 6.6227 13.9996 7.0006 13.9996C7.3785 13.9996 7.68479 13.6934 7.68479 13.3151V12.2208C7.68479 11.8429 7.37819 11.5366 7.0006 11.5366Z" fill="#FFC107"/>
<path d="M10.208 3.79192C9.94108 3.52469 9.94108 3.09161 10.208 2.82438L10.9821 2.05029C11.249 1.78337 11.6824 1.78337 11.9496 2.05029C12.2169 2.31751 12.2169 2.75091 11.9496 3.01783L11.1755 3.79192C10.9086 4.05915 10.4755 4.05915 10.208 3.79192Z" fill="#FFC107"/>
<path d="M3.79399 10.2085C3.52676 9.94093 3.09368 9.94093 2.82645 10.2085L2.05236 10.9822C1.78544 11.2492 1.78513 11.6829 2.05236 11.9498C2.31958 12.2167 2.75298 12.2167 3.01989 11.9498L3.79399 11.1754C4.06122 10.9085 4.06122 10.4751 3.79399 10.2085Z" fill="#FFC107"/>
<path d="M11.5371 7.00011C11.5371 6.62221 11.8434 6.31592 12.2213 6.31592H13.3159C13.6938 6.31592 14.0001 6.62221 14.0001 7.00011C14.0001 7.37801 13.6938 7.68399 13.3159 7.68399H12.2213C11.8434 7.68399 11.5371 7.37801 11.5371 7.00011Z" fill="#FFC107"/>
<path d="M2.46271 7.00011C2.46271 6.62221 2.15642 6.31592 1.77852 6.31592H0.684191C0.306289 6.31592 0 6.62221 0 7.00011C0 7.37801 0.306289 7.68399 0.684191 7.68399H1.77883C2.15642 7.68399 2.46271 7.37801 2.46271 7.00011Z" fill="#FFC107"/>
<path d="M10.2082 10.2085C10.4755 9.94157 10.9089 9.94157 11.1758 10.2085L11.9499 10.9826C12.2171 11.2492 12.2171 11.6829 11.9499 11.9498C11.6826 12.2167 11.2496 12.2167 10.9823 11.9498L10.2082 11.1757C9.94101 10.9085 9.94101 10.4754 10.2082 10.2085Z" fill="#FFC107"/>
<path d="M3.7941 3.79184C4.06133 3.52461 4.06133 3.09153 3.7941 2.8243L3.02001 2.05052C2.75278 1.78329 2.3197 1.78329 2.05247 2.05052C1.78524 2.31744 1.78524 2.75083 2.05247 3.01775L2.82656 3.79184C3.09379 4.05938 3.52688 4.05938 3.7941 3.79184Z" fill="#FFC107"/>
</svg>
