<svg width="18" height="16" fill="none" xmlns="http://www.w3.org/2000/svg"><path fill-rule="evenodd" clip-rule="evenodd" d="M5.152.973a50.576 50.576 0 018.099.04l1.623.138a2.666 2.666 0 012.409 2.253l.102.668a20.665 20.665 0 01-.096 6.835 2.343 2.343 0 01-2.305 1.923H6.007c-.206 0-.41.051-.591.15l-3.911 2.1A.75.75 0 01.4 14.42V5.903A4.93 4.93 0 014.959.988l.193-.015zM5.15 5.92a1.25 1.25 0 100 2.5 1.25 1.25 0 000-2.5zm4 0a1.25 1.25 0 100 2.5 1.25 1.25 0 000-2.5zm2.75 1.25a1.25 1.25 0 112.5 0 1.25 1.25 0 01-2.5 0z" fill="#D8DADB"/></svg>