<svg width="16" height="6" fill="none" xmlns="http://www.w3.org/2000/svg"><path d="M15.201.472c0 1.633-.408 2.958-1.224 3.976-.816 1.018-1.87 1.527-3.16 1.527a4.477 4.477 0 01-1.816-.369c-.553-.254-1.193-.728-1.922-1.421-.728-.702-1.4-1.053-2.014-1.053-.509 0-.921.219-1.237.658-.316.438-.474 1-.474 1.685l-2.83-.027c0-1.632.395-2.944 1.185-3.936C2.507.521 3.565.025 4.88.025A4.35 4.35 0 016.75.42c.56.263 1.197.737 1.908 1.421.72.676 1.373 1.014 1.961 1.014.518 0 .94-.232 1.264-.698.334-.465.5-1.03.5-1.698L15.2.472z" fill="#E4E6E7"/></svg>