<svg width="16" height="6" fill="none" xmlns="http://www.w3.org/2000/svg"><path d="M15.203.472c0 1.633-.408 2.958-1.224 3.976-.817 1.018-1.87 1.527-3.16 1.527a4.47 4.47 0 01-1.816-.369c-.553-.254-1.194-.728-1.922-1.421-.729-.702-1.4-1.053-2.014-1.053-.51 0-.922.219-1.238.658-.315.438-.473 1-.473 1.685l-2.83-.027c0-1.632.394-2.944 1.184-3.936C2.51.521 3.566.025 4.883.025A4.35 4.35 0 016.752.42c.561.263 1.198.737 1.908 1.421.72.676 1.374 1.014 1.962 1.014.518 0 .939-.232 1.264-.698.333-.465.5-1.03.5-1.698l2.817.013z" fill="#fff"/></svg>