<svg width="19" height="14" fill="none" xmlns="http://www.w3.org/2000/svg"><path d="M7.194 7c0 .598.242 1.171.673 1.594.431.423 1.016.66 1.626.66.61 0 1.194-.237 1.626-.66.43-.423.673-.996.673-1.594 0-.598-.242-1.172-.673-1.595a2.322 2.322 0 00-1.626-.66c-.61 0-1.195.238-1.626.66A2.233 2.233 0 007.194 7zm11.212-.52C16.46 2.46 13.52.437 9.575.437 5.629.437 2.69 2.46.744 6.482a1.195 1.195 0 000 1.037c1.946 4.02 4.887 6.044 8.831 6.044 3.946 0 6.885-2.023 8.831-6.046a1.193 1.193 0 000-1.037zm-8.913 4.063C7.497 10.543 5.88 8.957 5.88 7s1.617-3.544 3.613-3.544c1.995 0 3.613 1.587 3.613 3.544s-1.618 3.543-3.613 3.543z" fill="#fff"/></svg>