<svg width="122" height="255" viewBox="0 0 122 255" fill="none" xmlns="http://www.w3.org/2000/svg">
<path opacity="0.05" fill-rule="evenodd" clip-rule="evenodd" d="M119.227 255C117.696 255 116.455 253.759 116.455 252.228C116.455 250.697 117.696 249.457 119.227 249.457C120.759 249.457 122 250.697 122 252.228C122 253.759 120.759 255 119.227 255ZM102.591 255C101.06 255 99.8182 253.759 99.8182 252.228C99.8182 250.697 101.06 249.457 102.591 249.457C104.122 249.457 105.364 250.697 105.364 252.228C105.364 253.759 104.122 255 102.591 255ZM85.9545 255C84.4232 255 83.1818 253.759 83.1818 252.228C83.1818 250.697 84.4232 249.457 85.9545 249.457C87.4859 249.457 88.7273 250.697 88.7273 252.228C88.7273 253.759 87.4859 255 85.9545 255ZM69.3182 255C67.7868 255 66.5455 253.759 66.5455 252.228C66.5455 250.697 67.7868 249.457 69.3182 249.457C70.8495 249.457 72.0909 250.697 72.0909 252.228C72.0909 253.759 70.8495 255 69.3182 255ZM52.6818 255C51.1505 255 49.9091 253.759 49.9091 252.228C49.9091 250.697 51.1505 249.457 52.6818 249.457C54.2132 249.457 55.4545 250.697 55.4545 252.228C55.4545 253.759 54.2132 255 52.6818 255ZM36.0455 255C34.5141 255 33.2727 253.759 33.2727 252.228C33.2727 250.697 34.5141 249.457 36.0455 249.457C37.5768 249.457 38.8182 250.697 38.8182 252.228C38.8182 253.759 37.5768 255 36.0455 255ZM19.4091 255C17.8778 255 16.6364 253.759 16.6364 252.228C16.6364 250.697 17.8778 249.457 19.4091 249.457C20.9404 249.457 22.1818 250.697 22.1818 252.228C22.1818 253.759 20.9404 255 19.4091 255ZM2.77273 255C1.24139 255 0 253.759 0 252.228C0 250.697 1.24139 249.457 2.77273 249.457C4.30406 249.457 5.54545 250.697 5.54545 252.228C5.54545 253.759 4.30406 255 2.77273 255ZM119.227 238.37C117.696 238.37 116.455 237.129 116.455 235.598C116.455 234.067 117.696 232.826 119.227 232.826C120.759 232.826 122 234.067 122 235.598C122 237.129 120.759 238.37 119.227 238.37ZM102.591 238.37C101.06 238.37 99.8182 237.129 99.8182 235.598C99.8182 234.067 101.06 232.826 102.591 232.826C104.122 232.826 105.364 234.067 105.364 235.598C105.364 237.129 104.122 238.37 102.591 238.37ZM85.9545 238.37C84.4232 238.37 83.1818 237.129 83.1818 235.598C83.1818 234.067 84.4232 232.826 85.9545 232.826C87.4859 232.826 88.7273 234.067 88.7273 235.598C88.7273 237.129 87.4859 238.37 85.9545 238.37ZM69.3182 238.37C67.7868 238.37 66.5455 237.129 66.5455 235.598C66.5455 234.067 67.7868 232.826 69.3182 232.826C70.8495 232.826 72.0909 234.067 72.0909 235.598C72.0909 237.129 70.8495 238.37 69.3182 238.37ZM52.6818 238.37C51.1505 238.37 49.9091 237.129 49.9091 235.598C49.9091 234.067 51.1505 232.826 52.6818 232.826C54.2132 232.826 55.4545 234.067 55.4545 235.598C55.4545 237.129 54.2132 238.37 52.6818 238.37ZM36.0455 238.37C34.5141 238.37 33.2727 237.129 33.2727 235.598C33.2727 234.067 34.5141 232.826 36.0455 232.826C37.5768 232.826 38.8182 234.067 38.8182 235.598C38.8182 237.129 37.5768 238.37 36.0455 238.37ZM19.4091 238.37C17.8778 238.37 16.6364 237.129 16.6364 235.598C16.6364 234.067 17.8778 232.826 19.4091 232.826C20.9404 232.826 22.1818 234.067 22.1818 235.598C22.1818 237.129 20.9404 238.37 19.4091 238.37ZM2.77273 238.37C1.24139 238.37 0 237.129 0 235.598C0 234.067 1.24139 232.826 2.77273 232.826C4.30406 232.826 5.54545 234.067 5.54545 235.598C5.54545 237.129 4.30406 238.37 2.77273 238.37ZM119.227 221.739C117.696 221.739 116.455 220.498 116.455 218.967C116.455 217.437 117.696 216.196 119.227 216.196C120.759 216.196 122 217.437 122 218.967C122 220.498 120.759 221.739 119.227 221.739ZM102.591 221.739C101.06 221.739 99.8182 220.498 99.8182 218.967C99.8182 217.437 101.06 216.196 102.591 216.196C104.122 216.196 105.364 217.437 105.364 218.967C105.364 220.498 104.122 221.739 102.591 221.739ZM85.9545 221.739C84.4232 221.739 83.1818 220.498 83.1818 218.967C83.1818 217.437 84.4232 216.196 85.9545 216.196C87.4859 216.196 88.7273 217.437 88.7273 218.967C88.7273 220.498 87.4859 221.739 85.9545 221.739ZM69.3182 221.739C67.7868 221.739 66.5455 220.498 66.5455 218.967C66.5455 217.437 67.7868 216.196 69.3182 216.196C70.8495 216.196 72.0909 217.437 72.0909 218.967C72.0909 220.498 70.8495 221.739 69.3182 221.739ZM52.6818 221.739C51.1505 221.739 49.9091 220.498 49.9091 218.967C49.9091 217.437 51.1505 216.196 52.6818 216.196C54.2132 216.196 55.4545 217.437 55.4545 218.967C55.4545 220.498 54.2132 221.739 52.6818 221.739ZM36.0455 221.739C34.5141 221.739 33.2727 220.498 33.2727 218.967C33.2727 217.437 34.5141 216.196 36.0455 216.196C37.5768 216.196 38.8182 217.437 38.8182 218.967C38.8182 220.498 37.5768 221.739 36.0455 221.739ZM19.4091 221.739C17.8778 221.739 16.6364 220.498 16.6364 218.967C16.6364 217.437 17.8778 216.196 19.4091 216.196C20.9404 216.196 22.1818 217.437 22.1818 218.967C22.1818 220.498 20.9404 221.739 19.4091 221.739ZM2.77273 221.739C1.24139 221.739 0 220.498 0 218.967C0 217.437 1.24139 216.196 2.77273 216.196C4.30406 216.196 5.54545 217.437 5.54545 218.967C5.54545 220.498 4.30406 221.739 2.77273 221.739ZM119.227 205.109C117.696 205.109 116.455 203.868 116.455 202.337C116.455 200.806 117.696 199.565 119.227 199.565C120.759 199.565 122 200.806 122 202.337C122 203.868 120.759 205.109 119.227 205.109ZM102.591 205.109C101.06 205.109 99.8182 203.868 99.8182 202.337C99.8182 200.806 101.06 199.565 102.591 199.565C104.122 199.565 105.364 200.806 105.364 202.337C105.364 203.868 104.122 205.109 102.591 205.109ZM85.9545 205.109C84.4232 205.109 83.1818 203.868 83.1818 202.337C83.1818 200.806 84.4232 199.565 85.9545 199.565C87.4859 199.565 88.7273 200.806 88.7273 202.337C88.7273 203.868 87.4859 205.109 85.9545 205.109ZM69.3182 205.109C67.7868 205.109 66.5455 203.868 66.5455 202.337C66.5455 200.806 67.7868 199.565 69.3182 199.565C70.8495 199.565 72.0909 200.806 72.0909 202.337C72.0909 203.868 70.8495 205.109 69.3182 205.109ZM52.6818 205.109C51.1505 205.109 49.9091 203.868 49.9091 202.337C49.9091 200.806 51.1505 199.565 52.6818 199.565C54.2132 199.565 55.4545 200.806 55.4545 202.337C55.4545 203.868 54.2132 205.109 52.6818 205.109ZM36.0455 205.109C34.5141 205.109 33.2727 203.868 33.2727 202.337C33.2727 200.806 34.5141 199.565 36.0455 199.565C37.5768 199.565 38.8182 200.806 38.8182 202.337C38.8182 203.868 37.5768 205.109 36.0455 205.109ZM19.4091 205.109C17.8778 205.109 16.6364 203.868 16.6364 202.337C16.6364 200.806 17.8778 199.565 19.4091 199.565C20.9404 199.565 22.1818 200.806 22.1818 202.337C22.1818 203.868 20.9404 205.109 19.4091 205.109ZM2.77273 205.109C1.24139 205.109 0 203.868 0 202.337C0 200.806 1.24139 199.565 2.77273 199.565C4.30406 199.565 5.54545 200.806 5.54545 202.337C5.54545 203.868 4.30406 205.109 2.77273 205.109ZM119.227 188.478C117.696 188.478 116.455 187.237 116.455 185.707C116.455 184.176 117.696 182.935 119.227 182.935C120.759 182.935 122 184.176 122 185.707C122 187.237 120.759 188.478 119.227 188.478ZM102.591 188.478C101.06 188.478 99.8182 187.237 99.8182 185.707C99.8182 184.176 101.06 182.935 102.591 182.935C104.122 182.935 105.364 184.176 105.364 185.707C105.364 187.237 104.122 188.478 102.591 188.478ZM85.9545 188.478C84.4232 188.478 83.1818 187.237 83.1818 185.707C83.1818 184.176 84.4232 182.935 85.9545 182.935C87.4859 182.935 88.7273 184.176 88.7273 185.707C88.7273 187.237 87.4859 188.478 85.9545 188.478ZM69.3182 188.478C67.7868 188.478 66.5455 187.237 66.5455 185.707C66.5455 184.176 67.7868 182.935 69.3182 182.935C70.8495 182.935 72.0909 184.176 72.0909 185.707C72.0909 187.237 70.8495 188.478 69.3182 188.478ZM52.6818 188.478C51.1505 188.478 49.9091 187.237 49.9091 185.707C49.9091 184.176 51.1505 182.935 52.6818 182.935C54.2132 182.935 55.4545 184.176 55.4545 185.707C55.4545 187.237 54.2132 188.478 52.6818 188.478ZM36.0455 188.478C34.5141 188.478 33.2727 187.237 33.2727 185.707C33.2727 184.176 34.5141 182.935 36.0455 182.935C37.5768 182.935 38.8182 184.176 38.8182 185.707C38.8182 187.237 37.5768 188.478 36.0455 188.478ZM19.4091 188.478C17.8778 188.478 16.6364 187.237 16.6364 185.707C16.6364 184.176 17.8778 182.935 19.4091 182.935C20.9404 182.935 22.1818 184.176 22.1818 185.707C22.1818 187.237 20.9404 188.478 19.4091 188.478ZM2.77273 188.478C1.24139 188.478 0 187.237 0 185.707C0 184.176 1.24139 182.935 2.77273 182.935C4.30406 182.935 5.54545 184.176 5.54545 185.707C5.54545 187.237 4.30406 188.478 2.77273 188.478ZM119.227 171.848C117.696 171.848 116.455 170.607 116.455 169.076C116.455 167.545 117.696 166.304 119.227 166.304C120.759 166.304 122 167.545 122 169.076C122 170.607 120.759 171.848 119.227 171.848ZM102.591 171.848C101.06 171.848 99.8182 170.607 99.8182 169.076C99.8182 167.545 101.06 166.304 102.591 166.304C104.122 166.304 105.364 167.545 105.364 169.076C105.364 170.607 104.122 171.848 102.591 171.848ZM85.9545 171.848C84.4232 171.848 83.1818 170.607 83.1818 169.076C83.1818 167.545 84.4232 166.304 85.9545 166.304C87.4859 166.304 88.7273 167.545 88.7273 169.076C88.7273 170.607 87.4859 171.848 85.9545 171.848ZM69.3182 171.848C67.7868 171.848 66.5455 170.607 66.5455 169.076C66.5455 167.545 67.7868 166.304 69.3182 166.304C70.8495 166.304 72.0909 167.545 72.0909 169.076C72.0909 170.607 70.8495 171.848 69.3182 171.848ZM52.6818 171.848C51.1505 171.848 49.9091 170.607 49.9091 169.076C49.9091 167.545 51.1505 166.304 52.6818 166.304C54.2132 166.304 55.4545 167.545 55.4545 169.076C55.4545 170.607 54.2132 171.848 52.6818 171.848ZM36.0455 171.848C34.5141 171.848 33.2727 170.607 33.2727 169.076C33.2727 167.545 34.5141 166.304 36.0455 166.304C37.5768 166.304 38.8182 167.545 38.8182 169.076C38.8182 170.607 37.5768 171.848 36.0455 171.848ZM19.4091 171.848C17.8778 171.848 16.6364 170.607 16.6364 169.076C16.6364 167.545 17.8778 166.304 19.4091 166.304C20.9404 166.304 22.1818 167.545 22.1818 169.076C22.1818 170.607 20.9404 171.848 19.4091 171.848ZM2.77273 171.848C1.24139 171.848 0 170.607 0 169.076C0 167.545 1.24139 166.304 2.77273 166.304C4.30406 166.304 5.54545 167.545 5.54545 169.076C5.54545 170.607 4.30406 171.848 2.77273 171.848ZM119.227 155.217C117.696 155.217 116.455 153.976 116.455 152.446C116.455 150.915 117.696 149.674 119.227 149.674C120.759 149.674 122 150.915 122 152.446C122 153.976 120.759 155.217 119.227 155.217ZM102.591 155.217C101.06 155.217 99.8182 153.976 99.8182 152.446C99.8182 150.915 101.06 149.674 102.591 149.674C104.122 149.674 105.364 150.915 105.364 152.446C105.364 153.976 104.122 155.217 102.591 155.217ZM85.9545 155.217C84.4232 155.217 83.1818 153.976 83.1818 152.446C83.1818 150.915 84.4232 149.674 85.9545 149.674C87.4859 149.674 88.7273 150.915 88.7273 152.446C88.7273 153.976 87.4859 155.217 85.9545 155.217ZM69.3182 155.217C67.7868 155.217 66.5455 153.976 66.5455 152.446C66.5455 150.915 67.7868 149.674 69.3182 149.674C70.8495 149.674 72.0909 150.915 72.0909 152.446C72.0909 153.976 70.8495 155.217 69.3182 155.217ZM52.6818 155.217C51.1505 155.217 49.9091 153.976 49.9091 152.446C49.9091 150.915 51.1505 149.674 52.6818 149.674C54.2132 149.674 55.4545 150.915 55.4545 152.446C55.4545 153.976 54.2132 155.217 52.6818 155.217ZM36.0455 155.217C34.5141 155.217 33.2727 153.976 33.2727 152.446C33.2727 150.915 34.5141 149.674 36.0455 149.674C37.5768 149.674 38.8182 150.915 38.8182 152.446C38.8182 153.976 37.5768 155.217 36.0455 155.217ZM19.4091 155.217C17.8778 155.217 16.6364 153.976 16.6364 152.446C16.6364 150.915 17.8778 149.674 19.4091 149.674C20.9404 149.674 22.1818 150.915 22.1818 152.446C22.1818 153.976 20.9404 155.217 19.4091 155.217ZM2.77273 155.217C1.24139 155.217 0 153.976 0 152.446C0 150.915 1.24139 149.674 2.77273 149.674C4.30406 149.674 5.54545 150.915 5.54545 152.446C5.54545 153.976 4.30406 155.217 2.77273 155.217ZM119.227 138.587C117.696 138.587 116.455 137.346 116.455 135.815C116.455 134.284 117.696 133.043 119.227 133.043C120.759 133.043 122 134.284 122 135.815C122 137.346 120.759 138.587 119.227 138.587ZM102.591 138.587C101.06 138.587 99.8182 137.346 99.8182 135.815C99.8182 134.284 101.06 133.043 102.591 133.043C104.122 133.043 105.364 134.284 105.364 135.815C105.364 137.346 104.122 138.587 102.591 138.587ZM85.9545 138.587C84.4232 138.587 83.1818 137.346 83.1818 135.815C83.1818 134.284 84.4232 133.043 85.9545 133.043C87.4859 133.043 88.7273 134.284 88.7273 135.815C88.7273 137.346 87.4859 138.587 85.9545 138.587ZM69.3182 138.587C67.7868 138.587 66.5455 137.346 66.5455 135.815C66.5455 134.284 67.7868 133.043 69.3182 133.043C70.8495 133.043 72.0909 134.284 72.0909 135.815C72.0909 137.346 70.8495 138.587 69.3182 138.587ZM52.6818 138.587C51.1505 138.587 49.9091 137.346 49.9091 135.815C49.9091 134.284 51.1505 133.043 52.6818 133.043C54.2132 133.043 55.4545 134.284 55.4545 135.815C55.4545 137.346 54.2132 138.587 52.6818 138.587ZM36.0455 138.587C34.5141 138.587 33.2727 137.346 33.2727 135.815C33.2727 134.284 34.5141 133.043 36.0455 133.043C37.5768 133.043 38.8182 134.284 38.8182 135.815C38.8182 137.346 37.5768 138.587 36.0455 138.587ZM19.4091 138.587C17.8778 138.587 16.6364 137.346 16.6364 135.815C16.6364 134.284 17.8778 133.043 19.4091 133.043C20.9404 133.043 22.1818 134.284 22.1818 135.815C22.1818 137.346 20.9404 138.587 19.4091 138.587ZM2.77273 138.587C1.24139 138.587 0 137.346 0 135.815C0 134.284 1.24139 133.043 2.77273 133.043C4.30406 133.043 5.54545 134.284 5.54545 135.815C5.54545 137.346 4.30406 138.587 2.77273 138.587ZM119.227 121.957C117.696 121.957 116.455 120.716 116.455 119.185C116.455 117.654 117.696 116.413 119.227 116.413C120.759 116.413 122 117.654 122 119.185C122 120.716 120.759 121.957 119.227 121.957ZM102.591 121.957C101.06 121.957 99.8182 120.716 99.8182 119.185C99.8182 117.654 101.06 116.413 102.591 116.413C104.122 116.413 105.364 117.654 105.364 119.185C105.364 120.716 104.122 121.957 102.591 121.957ZM85.9545 121.957C84.4232 121.957 83.1818 120.716 83.1818 119.185C83.1818 117.654 84.4232 116.413 85.9545 116.413C87.4859 116.413 88.7273 117.654 88.7273 119.185C88.7273 120.716 87.4859 121.957 85.9545 121.957ZM69.3182 121.957C67.7868 121.957 66.5455 120.716 66.5455 119.185C66.5455 117.654 67.7868 116.413 69.3182 116.413C70.8495 116.413 72.0909 117.654 72.0909 119.185C72.0909 120.716 70.8495 121.957 69.3182 121.957ZM52.6818 121.957C51.1505 121.957 49.9091 120.716 49.9091 119.185C49.9091 117.654 51.1505 116.413 52.6818 116.413C54.2132 116.413 55.4545 117.654 55.4545 119.185C55.4545 120.716 54.2132 121.957 52.6818 121.957ZM36.0455 121.957C34.5141 121.957 33.2727 120.716 33.2727 119.185C33.2727 117.654 34.5141 116.413 36.0455 116.413C37.5768 116.413 38.8182 117.654 38.8182 119.185C38.8182 120.716 37.5768 121.957 36.0455 121.957ZM19.4091 121.957C17.8778 121.957 16.6364 120.716 16.6364 119.185C16.6364 117.654 17.8778 116.413 19.4091 116.413C20.9404 116.413 22.1818 117.654 22.1818 119.185C22.1818 120.716 20.9404 121.957 19.4091 121.957ZM2.77273 121.957C1.24139 121.957 0 120.716 0 119.185C0 117.654 1.24139 116.413 2.77273 116.413C4.30406 116.413 5.54545 117.654 5.54545 119.185C5.54545 120.716 4.30406 121.957 2.77273 121.957ZM119.227 105.326C117.696 105.326 116.455 104.085 116.455 102.554C116.455 101.024 117.696 99.7826 119.227 99.7826C120.759 99.7826 122 101.024 122 102.554C122 104.085 120.759 105.326 119.227 105.326ZM102.591 105.326C101.06 105.326 99.8182 104.085 99.8182 102.554C99.8182 101.024 101.06 99.7826 102.591 99.7826C104.122 99.7826 105.364 101.024 105.364 102.554C105.364 104.085 104.122 105.326 102.591 105.326ZM85.9545 105.326C84.4232 105.326 83.1818 104.085 83.1818 102.554C83.1818 101.024 84.4232 99.7826 85.9545 99.7826C87.4859 99.7826 88.7273 101.024 88.7273 102.554C88.7273 104.085 87.4859 105.326 85.9545 105.326ZM69.3182 105.326C67.7868 105.326 66.5455 104.085 66.5455 102.554C66.5455 101.024 67.7868 99.7826 69.3182 99.7826C70.8495 99.7826 72.0909 101.024 72.0909 102.554C72.0909 104.085 70.8495 105.326 69.3182 105.326ZM52.6818 105.326C51.1505 105.326 49.9091 104.085 49.9091 102.554C49.9091 101.024 51.1505 99.7826 52.6818 99.7826C54.2132 99.7826 55.4545 101.024 55.4545 102.554C55.4545 104.085 54.2132 105.326 52.6818 105.326ZM36.0455 105.326C34.5141 105.326 33.2727 104.085 33.2727 102.554C33.2727 101.024 34.5141 99.7826 36.0455 99.7826C37.5768 99.7826 38.8182 101.024 38.8182 102.554C38.8182 104.085 37.5768 105.326 36.0455 105.326ZM19.4091 105.326C17.8778 105.326 16.6364 104.085 16.6364 102.554C16.6364 101.024 17.8778 99.7826 19.4091 99.7826C20.9404 99.7826 22.1818 101.024 22.1818 102.554C22.1818 104.085 20.9404 105.326 19.4091 105.326ZM2.77273 105.326C1.24139 105.326 0 104.085 0 102.554C0 101.024 1.24139 99.7826 2.77273 99.7826C4.30406 99.7826 5.54545 101.024 5.54545 102.554C5.54545 104.085 4.30406 105.326 2.77273 105.326ZM119.227 88.6957C117.696 88.6957 116.455 87.4547 116.455 85.9239C116.455 84.3931 117.696 83.1522 119.227 83.1522C120.759 83.1522 122 84.3931 122 85.9239C122 87.4547 120.759 88.6957 119.227 88.6957ZM102.591 88.6957C101.06 88.6957 99.8182 87.4547 99.8182 85.9239C99.8182 84.3931 101.06 83.1522 102.591 83.1522C104.122 83.1522 105.364 84.3931 105.364 85.9239C105.364 87.4547 104.122 88.6957 102.591 88.6957ZM85.9545 88.6957C84.4232 88.6957 83.1818 87.4547 83.1818 85.9239C83.1818 84.3931 84.4232 83.1522 85.9545 83.1522C87.4859 83.1522 88.7273 84.3931 88.7273 85.9239C88.7273 87.4547 87.4859 88.6957 85.9545 88.6957ZM69.3182 88.6957C67.7868 88.6957 66.5455 87.4547 66.5455 85.9239C66.5455 84.3931 67.7868 83.1522 69.3182 83.1522C70.8495 83.1522 72.0909 84.3931 72.0909 85.9239C72.0909 87.4547 70.8495 88.6957 69.3182 88.6957ZM52.6818 88.6957C51.1505 88.6957 49.9091 87.4547 49.9091 85.9239C49.9091 84.3931 51.1505 83.1522 52.6818 83.1522C54.2132 83.1522 55.4545 84.3931 55.4545 85.9239C55.4545 87.4547 54.2132 88.6957 52.6818 88.6957ZM36.0455 88.6957C34.5141 88.6957 33.2727 87.4547 33.2727 85.9239C33.2727 84.3931 34.5141 83.1522 36.0455 83.1522C37.5768 83.1522 38.8182 84.3931 38.8182 85.9239C38.8182 87.4547 37.5768 88.6957 36.0455 88.6957ZM19.4091 88.6957C17.8778 88.6957 16.6364 87.4547 16.6364 85.9239C16.6364 84.3931 17.8778 83.1522 19.4091 83.1522C20.9404 83.1522 22.1818 84.3931 22.1818 85.9239C22.1818 87.4547 20.9404 88.6957 19.4091 88.6957ZM2.77273 88.6957C1.24139 88.6957 0 87.4547 0 85.9239C0 84.3931 1.24139 83.1522 2.77273 83.1522C4.30406 83.1522 5.54545 84.3931 5.54545 85.9239C5.54545 87.4547 4.30406 88.6957 2.77273 88.6957ZM119.227 72.0652C117.696 72.0652 116.455 70.8243 116.455 69.2935C116.455 67.7627 117.696 66.5217 119.227 66.5217C120.759 66.5217 122 67.7627 122 69.2935C122 70.8243 120.759 72.0652 119.227 72.0652ZM102.591 72.0652C101.06 72.0652 99.8182 70.8243 99.8182 69.2935C99.8182 67.7627 101.06 66.5217 102.591 66.5217C104.122 66.5217 105.364 67.7627 105.364 69.2935C105.364 70.8243 104.122 72.0652 102.591 72.0652ZM85.9545 72.0652C84.4232 72.0652 83.1818 70.8243 83.1818 69.2935C83.1818 67.7627 84.4232 66.5217 85.9545 66.5217C87.4859 66.5217 88.7273 67.7627 88.7273 69.2935C88.7273 70.8243 87.4859 72.0652 85.9545 72.0652ZM69.3182 72.0652C67.7868 72.0652 66.5455 70.8243 66.5455 69.2935C66.5455 67.7627 67.7868 66.5217 69.3182 66.5217C70.8495 66.5217 72.0909 67.7627 72.0909 69.2935C72.0909 70.8243 70.8495 72.0652 69.3182 72.0652ZM52.6818 72.0652C51.1505 72.0652 49.9091 70.8243 49.9091 69.2935C49.9091 67.7627 51.1505 66.5217 52.6818 66.5217C54.2132 66.5217 55.4545 67.7627 55.4545 69.2935C55.4545 70.8243 54.2132 72.0652 52.6818 72.0652ZM36.0455 72.0652C34.5141 72.0652 33.2727 70.8243 33.2727 69.2935C33.2727 67.7627 34.5141 66.5217 36.0455 66.5217C37.5768 66.5217 38.8182 67.7627 38.8182 69.2935C38.8182 70.8243 37.5768 72.0652 36.0455 72.0652ZM19.4091 72.0652C17.8778 72.0652 16.6364 70.8243 16.6364 69.2935C16.6364 67.7627 17.8778 66.5217 19.4091 66.5217C20.9404 66.5217 22.1818 67.7627 22.1818 69.2935C22.1818 70.8243 20.9404 72.0652 19.4091 72.0652ZM2.77273 72.0652C1.24139 72.0652 0 70.8243 0 69.2935C0 67.7627 1.24139 66.5217 2.77273 66.5217C4.30406 66.5217 5.54545 67.7627 5.54545 69.2935C5.54545 70.8243 4.30406 72.0652 2.77273 72.0652ZM119.227 55.4348C117.696 55.4348 116.455 54.1938 116.455 52.663C116.455 51.1323 117.696 49.8913 119.227 49.8913C120.759 49.8913 122 51.1323 122 52.663C122 54.1938 120.759 55.4348 119.227 55.4348ZM102.591 55.4348C101.06 55.4348 99.8182 54.1938 99.8182 52.663C99.8182 51.1323 101.06 49.8913 102.591 49.8913C104.122 49.8913 105.364 51.1323 105.364 52.663C105.364 54.1938 104.122 55.4348 102.591 55.4348ZM85.9545 55.4348C84.4232 55.4348 83.1818 54.1938 83.1818 52.663C83.1818 51.1323 84.4232 49.8913 85.9545 49.8913C87.4859 49.8913 88.7273 51.1323 88.7273 52.663C88.7273 54.1938 87.4859 55.4348 85.9545 55.4348ZM69.3182 55.4348C67.7868 55.4348 66.5455 54.1938 66.5455 52.663C66.5455 51.1323 67.7868 49.8913 69.3182 49.8913C70.8495 49.8913 72.0909 51.1323 72.0909 52.663C72.0909 54.1938 70.8495 55.4348 69.3182 55.4348ZM52.6818 55.4348C51.1505 55.4348 49.9091 54.1938 49.9091 52.663C49.9091 51.1323 51.1505 49.8913 52.6818 49.8913C54.2132 49.8913 55.4545 51.1323 55.4545 52.663C55.4545 54.1938 54.2132 55.4348 52.6818 55.4348ZM36.0455 55.4348C34.5141 55.4348 33.2727 54.1938 33.2727 52.663C33.2727 51.1323 34.5141 49.8913 36.0455 49.8913C37.5768 49.8913 38.8182 51.1323 38.8182 52.663C38.8182 54.1938 37.5768 55.4348 36.0455 55.4348ZM19.4091 55.4348C17.8778 55.4348 16.6364 54.1938 16.6364 52.663C16.6364 51.1323 17.8778 49.8913 19.4091 49.8913C20.9404 49.8913 22.1818 51.1323 22.1818 52.663C22.1818 54.1938 20.9404 55.4348 19.4091 55.4348ZM2.77273 55.4348C1.24139 55.4348 0 54.1938 0 52.663C0 51.1323 1.24139 49.8913 2.77273 49.8913C4.30406 49.8913 5.54545 51.1323 5.54545 52.663C5.54545 54.1938 4.30406 55.4348 2.77273 55.4348ZM119.227 38.8043C117.696 38.8043 116.455 37.5634 116.455 36.0326C116.455 34.5018 117.696 33.2609 119.227 33.2609C120.759 33.2609 122 34.5018 122 36.0326C122 37.5634 120.759 38.8043 119.227 38.8043ZM102.591 38.8043C101.06 38.8043 99.8182 37.5634 99.8182 36.0326C99.8182 34.5018 101.06 33.2609 102.591 33.2609C104.122 33.2609 105.364 34.5018 105.364 36.0326C105.364 37.5634 104.122 38.8043 102.591 38.8043ZM85.9545 38.8043C84.4232 38.8043 83.1818 37.5634 83.1818 36.0326C83.1818 34.5018 84.4232 33.2609 85.9545 33.2609C87.4859 33.2609 88.7273 34.5018 88.7273 36.0326C88.7273 37.5634 87.4859 38.8043 85.9545 38.8043ZM69.3182 38.8043C67.7868 38.8043 66.5455 37.5634 66.5455 36.0326C66.5455 34.5018 67.7868 33.2609 69.3182 33.2609C70.8495 33.2609 72.0909 34.5018 72.0909 36.0326C72.0909 37.5634 70.8495 38.8043 69.3182 38.8043ZM52.6818 38.8043C51.1505 38.8043 49.9091 37.5634 49.9091 36.0326C49.9091 34.5018 51.1505 33.2609 52.6818 33.2609C54.2132 33.2609 55.4545 34.5018 55.4545 36.0326C55.4545 37.5634 54.2132 38.8043 52.6818 38.8043ZM36.0455 38.8043C34.5141 38.8043 33.2727 37.5634 33.2727 36.0326C33.2727 34.5018 34.5141 33.2609 36.0455 33.2609C37.5768 33.2609 38.8182 34.5018 38.8182 36.0326C38.8182 37.5634 37.5768 38.8043 36.0455 38.8043ZM19.4091 38.8043C17.8778 38.8043 16.6364 37.5634 16.6364 36.0326C16.6364 34.5018 17.8778 33.2609 19.4091 33.2609C20.9404 33.2609 22.1818 34.5018 22.1818 36.0326C22.1818 37.5634 20.9404 38.8043 19.4091 38.8043ZM2.77273 38.8043C1.24139 38.8043 0 37.5634 0 36.0326C0 34.5018 1.24139 33.2609 2.77273 33.2609C4.30406 33.2609 5.54545 34.5018 5.54545 36.0326C5.54545 37.5634 4.30406 38.8043 2.77273 38.8043ZM119.227 22.1739C117.696 22.1739 116.455 20.933 116.455 19.4022C116.455 17.8714 117.696 16.6304 119.227 16.6304C120.759 16.6304 122 17.8714 122 19.4022C122 20.933 120.759 22.1739 119.227 22.1739ZM102.591 22.1739C101.06 22.1739 99.8182 20.933 99.8182 19.4022C99.8182 17.8714 101.06 16.6304 102.591 16.6304C104.122 16.6304 105.364 17.8714 105.364 19.4022C105.364 20.933 104.122 22.1739 102.591 22.1739ZM85.9545 22.1739C84.4232 22.1739 83.1818 20.933 83.1818 19.4022C83.1818 17.8714 84.4232 16.6304 85.9545 16.6304C87.4859 16.6304 88.7273 17.8714 88.7273 19.4022C88.7273 20.933 87.4859 22.1739 85.9545 22.1739ZM69.3182 22.1739C67.7868 22.1739 66.5455 20.933 66.5455 19.4022C66.5455 17.8714 67.7868 16.6304 69.3182 16.6304C70.8495 16.6304 72.0909 17.8714 72.0909 19.4022C72.0909 20.933 70.8495 22.1739 69.3182 22.1739ZM52.6818 22.1739C51.1505 22.1739 49.9091 20.933 49.9091 19.4022C49.9091 17.8714 51.1505 16.6304 52.6818 16.6304C54.2132 16.6304 55.4545 17.8714 55.4545 19.4022C55.4545 20.933 54.2132 22.1739 52.6818 22.1739ZM36.0455 22.1739C34.5141 22.1739 33.2727 20.933 33.2727 19.4022C33.2727 17.8714 34.5141 16.6304 36.0455 16.6304C37.5768 16.6304 38.8182 17.8714 38.8182 19.4022C38.8182 20.933 37.5768 22.1739 36.0455 22.1739ZM19.4091 22.1739C17.8778 22.1739 16.6364 20.933 16.6364 19.4022C16.6364 17.8714 17.8778 16.6304 19.4091 16.6304C20.9404 16.6304 22.1818 17.8714 22.1818 19.4022C22.1818 20.933 20.9404 22.1739 19.4091 22.1739ZM2.77273 22.1739C1.24139 22.1739 0 20.933 0 19.4022C0 17.8714 1.24139 16.6304 2.77273 16.6304C4.30406 16.6304 5.54545 17.8714 5.54545 19.4022C5.54545 20.933 4.30406 22.1739 2.77273 22.1739ZM119.227 5.54348C117.696 5.54348 116.455 4.30253 116.455 2.77174C116.455 1.24095 117.696 0 119.227 0C120.759 0 122 1.24095 122 2.77174C122 4.30253 120.759 5.54348 119.227 5.54348ZM102.591 5.54348C101.06 5.54348 99.8182 4.30253 99.8182 2.77174C99.8182 1.24095 101.06 0 102.591 0C104.122 0 105.364 1.24095 105.364 2.77174C105.364 4.30253 104.122 5.54348 102.591 5.54348ZM85.9545 5.54348C84.4232 5.54348 83.1818 4.30253 83.1818 2.77174C83.1818 1.24095 84.4232 0 85.9545 0C87.4859 0 88.7273 1.24095 88.7273 2.77174C88.7273 4.30253 87.4859 5.54348 85.9545 5.54348ZM69.3182 5.54348C67.7868 5.54348 66.5455 4.30253 66.5455 2.77174C66.5455 1.24095 67.7868 0 69.3182 0C70.8495 0 72.0909 1.24095 72.0909 2.77174C72.0909 4.30253 70.8495 5.54348 69.3182 5.54348ZM52.6818 5.54348C51.1505 5.54348 49.9091 4.30253 49.9091 2.77174C49.9091 1.24095 51.1505 0 52.6818 0C54.2132 0 55.4545 1.24095 55.4545 2.77174C55.4545 4.30253 54.2132 5.54348 52.6818 5.54348ZM36.0455 5.54348C34.5141 5.54348 33.2727 4.30253 33.2727 2.77174C33.2727 1.24095 34.5141 0 36.0455 0C37.5768 0 38.8182 1.24095 38.8182 2.77174C38.8182 4.30253 37.5768 5.54348 36.0455 5.54348ZM19.4091 5.54348C17.8778 5.54348 16.6364 4.30253 16.6364 2.77174C16.6364 1.24095 17.8778 0 19.4091 0C20.9404 0 22.1818 1.24095 22.1818 2.77174C22.1818 4.30253 20.9404 5.54348 19.4091 5.54348ZM2.77273 5.54348C1.24139 5.54348 0 4.30253 0 2.77174C0 1.24095 1.24139 0 2.77273 0C4.30406 0 5.54545 1.24095 5.54545 2.77174C5.54545 4.30253 4.30406 5.54348 2.77273 5.54348Z" fill="#242A30"/>
</svg>
