<svg width="32" height="32" viewBox="0 0 32 32" fill="none" xmlns="http://www.w3.org/2000/svg">
<path d="M4.17714 20.9653C8.49782 25.286 15.3205 25.5798 19.9814 21.8468L29.0485 30.9139C29.5636 31.429 30.3988 31.429 30.9139 30.9139C31.429 30.3988 31.429 29.5636 30.9139 29.0485L21.8468 19.9814C24.4651 16.7123 25.1024 12.3796 23.7587 8.59277L16.165 14.9209L13.0766 11.3177L7.71225 16.682C7.21775 17.1765 6.416 17.1765 5.9215 16.682C5.42701 16.1875 5.42701 15.3858 5.9215 14.8913L13.2196 7.59318L16.4624 11.3764L22.6195 6.24551C22.1564 5.51131 21.605 4.81681 20.9653 4.17715C16.3294 -0.458788 8.81308 -0.458789 4.17714 4.17715C-0.458788 8.81308 -0.458788 16.3294 4.17714 20.9653Z" fill="url(#paint0_linear)"/>
<defs>
<linearGradient id="paint0_linear" x1="16.0002" y1="0.700195" x2="16.0002" y2="31.3002" gradientUnits="userSpaceOnUse">
<stop stop-color="#FFC56D"/>
<stop offset="1" stop-color="#FFA048"/>
</linearGradient>
</defs>
</svg>
