<svg width="26" height="27" viewBox="0 0 26 27" fill="none" xmlns="http://www.w3.org/2000/svg">
<path d="M24.636 22.3601C25.3008 15.9709 25.3008 9.52987 24.636 3.14063C24.4281 1.14216 22.1239 0.129839 20.5114 1.32851L14.3559 5.90412C12.4155 7.34647 10.0621 8.12535 7.64443 8.12535H1.90063C1.07221 8.12535 0.400635 8.79693 0.400635 9.62535V15.8754C0.400635 16.7038 1.07221 17.3754 1.90063 17.3754L7.64443 17.3754C10.0621 17.3754 12.4155 18.1542 14.3559 19.5966L20.5114 24.1722C22.1239 25.3709 24.4281 24.3586 24.636 22.3601Z" fill="url(#paint0_linear)"/>
<path d="M8.52077 20.7033C8.60693 20.3667 8.53266 20.0091 8.31955 19.7345C8.10644 19.46 7.77843 19.2994 7.4309 19.2994L4.4309 19.2994C4.00478 19.2994 3.61523 19.5401 3.42466 19.9213L1.92466 22.9213C1.6685 23.4336 1.83817 24.0566 2.31874 24.3683L5.5197 26.4442C5.82361 26.6413 6.20384 26.68 6.54124 26.5482C6.87863 26.4164 7.13192 26.1302 7.22173 25.7793L8.52077 20.7033Z" fill="url(#paint1_linear)"/>
<defs>
<linearGradient id="paint0_linear" x1="12.7676" y1="0.813477" x2="12.7676" y2="26.6254" gradientUnits="userSpaceOnUse">
<stop stop-color="#FCC1AE"/>
<stop offset="1" stop-color="#FF84EB"/>
</linearGradient>
<linearGradient id="paint1_linear" x1="12.7676" y1="0.813477" x2="12.7676" y2="26.6254" gradientUnits="userSpaceOnUse">
<stop stop-color="#FCC1AE"/>
<stop offset="1" stop-color="#FF84EB"/>
</linearGradient>
</defs>
</svg>
