<svg width="26" height="31" viewBox="0 0 26 31" fill="none" xmlns="http://www.w3.org/2000/svg">
<path fill-rule="evenodd" clip-rule="evenodd" d="M0.444006 11.3161C0.959464 5.06267 6.18515 0.25 12.4598 0.25H13.1077C19.3823 0.25 24.608 5.06267 25.1235 11.3161C25.401 14.683 24.361 18.0262 22.2225 20.6415L15.0329 29.4342C13.8704 30.8558 11.697 30.8558 10.5346 29.4342L3.34498 20.6415C1.20649 18.0262 0.166478 14.683 0.444006 11.3161ZM18.0792 10.7955C18.5185 10.3562 18.5185 9.64384 18.0792 9.2045C17.6398 8.76517 16.9275 8.76517 16.4882 9.2045L12.0337 13.659L9.82919 11.4545C9.38985 11.0152 8.67754 11.0152 8.2382 11.4545C7.79886 11.8938 7.79886 12.6062 8.2382 13.0455L11.2382 16.0455C11.6775 16.4848 12.3898 16.4848 12.8292 16.0455L18.0792 10.7955Z" fill="url(#paint0_linear)"/>
<defs>
<linearGradient id="paint0_linear" x1="12.7837" y1="0.25" x2="12.7837" y2="30.5004" gradientUnits="userSpaceOnUse">
<stop stop-color="#FCAEC7"/>
<stop offset="1" stop-color="#FF8758"/>
</linearGradient>
</defs>
</svg>
