<svg width="28" height="26" viewBox="0 0 28 26" fill="none" xmlns="http://www.w3.org/2000/svg">
<path fill-rule="evenodd" clip-rule="evenodd" d="M7.10902 3.49902V5.6299L4.56813 5.835C2.77161 5.98001 1.30615 7.33268 1.01803 9.11186C0.955407 9.49853 0.898459 9.88589 0.847184 10.2738C0.821739 10.4663 0.924394 10.6526 1.09989 10.7357L1.21547 10.7904C9.35853 14.6461 19.1095 14.6462 27.2526 10.7904L27.3681 10.7357C27.5436 10.6526 27.6463 10.4663 27.6208 10.2738C27.5696 9.8859 27.5126 9.49854 27.45 9.11186C27.1619 7.33268 25.6964 5.98001 23.8999 5.835L21.359 5.6299V3.49902C21.359 2.19965 20.4084 1.09581 19.1234 0.903059L17.2935 0.628578C15.2652 0.324328 13.2028 0.324328 11.1745 0.628579L9.34463 0.903059C8.05964 1.09581 7.10902 2.19965 7.10902 3.49902ZM16.9598 2.85368C15.1527 2.58263 13.3153 2.58263 11.5083 2.85369L9.6784 3.12817C9.49483 3.1557 9.35902 3.31339 9.35902 3.49902V5.47154C12.6064 5.28551 15.8617 5.28551 19.109 5.47154V3.49902C19.109 3.31339 18.9732 3.1557 18.7896 3.12817L16.9598 2.85368Z" fill="url(#paint0_linear)"/>
<path d="M27.9115 13.4135C27.9003 13.2034 27.6803 13.0721 27.4878 13.1573C19.1314 16.8572 9.33659 16.8572 0.980202 13.1573C0.787756 13.0721 0.567731 13.2033 0.556541 13.4135C0.403881 16.2807 0.557709 19.1601 1.01803 22.0026C1.30615 23.7818 2.77161 25.1344 4.56813 25.2794L7.376 25.5061C11.9406 25.8745 16.5274 25.8745 21.092 25.5061L23.8999 25.2794C25.6964 25.1344 27.1619 23.7818 27.45 22.0026C27.9103 19.1601 28.0641 16.2807 27.9115 13.4135Z" fill="url(#paint1_linear)"/>
<defs>
<linearGradient id="paint0_linear" x1="14.234" y1="0.400391" x2="14.234" y2="25.7824" gradientUnits="userSpaceOnUse">
<stop stop-color="#FCAEC7"/>
<stop offset="1" stop-color="#FF5A90"/>
</linearGradient>
<linearGradient id="paint1_linear" x1="14.234" y1="0.400391" x2="14.234" y2="25.7824" gradientUnits="userSpaceOnUse">
<stop stop-color="#FCAEC7"/>
<stop offset="1" stop-color="#FF5A90"/>
</linearGradient>
</defs>
</svg>
