<svg width="30" height="29" viewBox="0 0 30 29" fill="none" xmlns="http://www.w3.org/2000/svg">
<path fill-rule="evenodd" clip-rule="evenodd" d="M25.3506 28.2503H5.85059C2.95109 28.2503 0.600586 25.8998 0.600586 23.0003V3.41509C0.600586 1.81377 2.18434 0.798569 3.57793 1.2824C3.77702 1.35152 3.97222 1.45123 4.15837 1.58419L4.42094 1.77174C5.72298 2.70177 7.48396 2.69765 8.78966 1.76501C10.6151 0.461143 13.0861 0.461143 14.9115 1.76501C16.2172 2.69765 17.9782 2.70177 19.2802 1.77174L19.5428 1.58419C21.032 0.520475 23.1006 1.585 23.1006 3.41509V14.7503H28.3506C28.9719 14.7503 29.4756 15.254 29.4756 15.8753V24.1253C29.4756 26.4035 27.6288 28.2503 25.3506 28.2503ZM23.4756 17.0003V24.1253C23.4756 25.1608 24.3151 26.0003 25.3506 26.0003C26.3861 26.0003 27.2256 25.1608 27.2256 24.1253V17.0003H23.4756ZM17.1006 10.6253C17.1006 10.004 16.5969 9.5003 15.9756 9.5003H6.97559C6.35427 9.5003 5.85059 10.004 5.85059 10.6253C5.85059 11.2466 6.35427 11.7503 6.97559 11.7503H15.9756C16.5969 11.7503 17.1006 11.2466 17.1006 10.6253ZM15.6006 15.1253C15.6006 14.504 15.0969 14.0003 14.4756 14.0003H6.97559C6.35427 14.0003 5.85059 14.504 5.85059 15.1253C5.85059 15.7466 6.35427 16.2503 6.97559 16.2503H14.4756C15.0969 16.2503 15.6006 15.7466 15.6006 15.1253ZM15.9756 18.5003C16.5969 18.5003 17.1006 19.004 17.1006 19.6253C17.1006 20.2466 16.5969 20.7503 15.9756 20.7503H6.97559C6.35427 20.7503 5.85059 20.2466 5.85059 19.6253C5.85059 19.004 6.35427 18.5003 6.97559 18.5003H15.9756Z" fill="url(#paint0_linear)"/>
<defs>
<linearGradient id="paint0_linear" x1="15.0381" y1="0.787109" x2="15.0381" y2="28.2503" gradientUnits="userSpaceOnUse">
<stop stop-color="#FCCFAE"/>
<stop offset="1" stop-color="#FFA95A"/>
</linearGradient>
</defs>
</svg>
