<svg width="26" height="26" viewBox="0 0 26 26" fill="none" xmlns="http://www.w3.org/2000/svg">
<path d="M6.08899 0.788605C10.7203 0.270986 15.5074 0.270986 20.1387 0.788605C21.8775 0.982942 23.404 1.92326 24.3695 3.28885L12.3639 15.2945L8.65939 11.59C8.22005 11.1506 7.50774 11.1506 7.0684 11.59C6.62906 12.0293 6.62906 12.7416 7.0684 13.181L11.5684 17.681C12.0077 18.1203 12.72 18.1203 13.1594 17.681L25.3325 5.50782C25.3662 5.67217 25.3932 5.83906 25.4129 6.0082C25.9668 10.7436 25.9668 15.5274 25.4129 20.2628C25.0907 23.0182 22.8783 25.1762 20.1387 25.4823C15.5074 26 10.7203 26 6.08899 25.4823C3.34942 25.1762 1.13707 23.0182 0.814798 20.2628C0.260953 15.5274 0.260953 10.7436 0.814798 6.0082C1.13707 3.25276 3.34942 1.09479 6.08899 0.788605Z" fill="url(#paint0_linear)"/>
<defs>
<linearGradient id="paint0_linear" x1="13.1139" y1="0.400391" x2="13.1139" y2="25.8706" gradientUnits="userSpaceOnUse">
<stop stop-color="#FFC56D"/>
<stop offset="1" stop-color="#FFA048"/>
</linearGradient>
</defs>
</svg>
