<svg width="20" height="20" fill="none" xmlns="http://www.w3.org/2000/svg"><path fill-rule="evenodd" clip-rule="evenodd" d="M18.69 9.74c-.07.09-.14.17-.22.26-.08.09-.16.17-.24.26l-.03.03a6.004 6.004 0 01-8.46-8.52c.09-.08.17-.16.26-.24.08-.07.17-.15.26-.22C10.74.92 10.62 0 10 0c-.26 0-.52.01-.77.03-.08.01-.17.01-.25.02h-.03C3.92.58 0 4.83 0 10c0 5.52 4.48 10 10 10 5.17 0 9.42-3.92 9.95-8.95v-.03c.01-.08.02-.17.02-.25.02-.25.03-.51.03-.77 0-.62-.92-.74-1.31-.26zM10 18.2c-4.53 0-8.2-3.67-8.2-8.2 0-2.84 1.53-5.2 3.64-6.79.39-.3.8-.6 1.23-.87.42-.27.88-.47 1.33-.67-.12.07-1.04 1.36-1.3 1.98-.34.74-.5 1.53-.5 2.35 0 4.31 3.49 7.8 7.8 7.8.67 0 1.34-.11 1.99-.3.39-.12.78-.25 1.14-.44.39-.21.7-.48 1.01-.79.08-.08.18-.21.29-.26-.31 1.1-1.7 2.93-2.37 3.62-.72.75-1.59 1.37-2.54 1.8-.98.45-2.04.71-3.12.76-.13.01-.27.01-.4.01z" fill="#242A30"/></svg>