<svg width="14" height="14" fill="none" xmlns="http://www.w3.org/2000/svg"><path d="M7.001 3.494A3.51 3.51 0 003.495 7 3.51 3.51 0 007 10.507 3.51 3.51 0 0010.508 7 3.51 3.51 0 007 3.494zM7 2.463a.684.684 0 01-.684-.684V.684a.684.684 0 111.369 0V1.78A.684.684 0 017 2.463zm0 9.074a.684.684 0 00-.684.684v1.094a.684.684 0 101.369 0v-1.094A.684.684 0 007 11.537zm3.208-7.745a.685.685 0 010-.968l.774-.774a.685.685 0 01.968.968l-.774.774a.684.684 0 01-.968 0zm-6.414 6.417a.683.683 0 00-.968 0l-.774.773a.684.684 0 00.968.968l.774-.775a.683.683 0 000-.966zM11.537 7c0-.378.306-.684.684-.684h1.095a.684.684 0 110 1.368H12.22A.684.684 0 0111.537 7zM2.463 7a.684.684 0 00-.684-.684H.684a.684.684 0 100 1.368H1.78A.684.684 0 002.463 7zm7.745 3.209a.685.685 0 01.968 0l.774.774a.684.684 0 11-.968.967l-.774-.774a.684.684 0 010-.967zM3.794 3.792a.684.684 0 000-.968l-.774-.773a.684.684 0 00-.968.967l.775.774c.267.267.7.267.967 0z" fill="#FFC107"/></svg>