<svg width="122" height="255" fill="none" xmlns="http://www.w3.org/2000/svg"><path opacity=".05" fill-rule="evenodd" clip-rule="evenodd" d="M119.227 255a2.772 2.772 0 110-5.544 2.772 2.772 0 010 5.544zm-16.636 0a2.773 2.773 0 110-5.545 2.773 2.773 0 010 5.545zm-16.636 0a2.772 2.772 0 11-.001-5.545 2.772 2.772 0 010 5.545zm-16.637 0a2.772 2.772 0 110-5.545 2.772 2.772 0 010 5.545zm-16.636 0a2.772 2.772 0 11-.001-5.545 2.772 2.772 0 010 5.545zm-16.637 0a2.772 2.772 0 110-5.545 2.772 2.772 0 010 5.545zm-16.636 0a2.772 2.772 0 110-5.545 2.772 2.772 0 010 5.545zm-16.636 0a2.772 2.772 0 11-.001-5.545 2.772 2.772 0 010 5.545zm116.454-16.63a2.772 2.772 0 110-5.544 2.772 2.772 0 010 5.544zm-16.636 0a2.773 2.773 0 110-5.545 2.773 2.773 0 010 5.545zm-16.636 0a2.772 2.772 0 11-.001-5.545 2.772 2.772 0 010 5.545zm-16.637 0a2.772 2.772 0 110-5.545 2.772 2.772 0 010 5.545zm-16.636 0a2.772 2.772 0 11-.001-5.545 2.772 2.772 0 010 5.545zm-16.637 0a2.772 2.772 0 110-5.545 2.772 2.772 0 010 5.545zm-16.636 0a2.772 2.772 0 110-5.545 2.772 2.772 0 010 5.545zm-16.636 0a2.772 2.772 0 11-.001-5.545 2.772 2.772 0 010 5.545zm116.454-16.631a2.772 2.772 0 110-5.544 2.772 2.772 0 010 5.544zm-16.636 0a2.773 2.773 0 110-5.545 2.773 2.773 0 010 5.545zm-16.636 0a2.772 2.772 0 11-.001-5.545 2.772 2.772 0 010 5.545zm-16.637 0a2.772 2.772 0 110-5.545 2.772 2.772 0 010 5.545zm-16.636 0a2.772 2.772 0 11-.001-5.545 2.772 2.772 0 010 5.545zm-16.637 0a2.772 2.772 0 110-5.545 2.772 2.772 0 010 5.545zm-16.636 0a2.772 2.772 0 110-5.545 2.772 2.772 0 010 5.545zm-16.636 0a2.772 2.772 0 11-.001-5.545 2.772 2.772 0 010 5.545zm116.454-16.63a2.772 2.772 0 110-5.544 2.772 2.772 0 010 5.544zm-16.636 0a2.773 2.773 0 110-5.545 2.773 2.773 0 010 5.545zm-16.636 0a2.772 2.772 0 11-.001-5.545 2.772 2.772 0 010 5.545zm-16.637 0a2.772 2.772 0 110-5.545 2.772 2.772 0 010 5.545zm-16.636 0a2.772 2.772 0 11-.001-5.545 2.772 2.772 0 010 5.545zm-16.637 0a2.772 2.772 0 110-5.545 2.772 2.772 0 010 5.545zm-16.636 0a2.772 2.772 0 110-5.545 2.772 2.772 0 010 5.545zm-16.636 0a2.772 2.772 0 11-.001-5.545 2.772 2.772 0 010 5.545zm116.454-16.631a2.772 2.772 0 110-5.543 2.772 2.772 0 010 5.543zm-16.636 0a2.772 2.772 0 110-5.545 2.772 2.772 0 010 5.545zm-16.636 0a2.772 2.772 0 11-.002-5.544 2.772 2.772 0 01.001 5.544zm-16.637 0a2.772 2.772 0 11-.001-5.544 2.772 2.772 0 01.001 5.544zm-16.636 0a2.772 2.772 0 11-.001-5.544 2.772 2.772 0 010 5.544zm-16.637 0a2.772 2.772 0 110-5.544 2.772 2.772 0 010 5.544zm-16.636 0a2.772 2.772 0 11-.001-5.544 2.772 2.772 0 01.001 5.544zm-16.636 0a2.772 2.772 0 11-.002-5.544 2.772 2.772 0 01.002 5.544zm116.454-16.63a2.772 2.772 0 110-5.544 2.772 2.772 0 010 5.544zm-16.636 0a2.773 2.773 0 110-5.545 2.773 2.773 0 010 5.545zm-16.636 0a2.772 2.772 0 11-.001-5.545 2.772 2.772 0 010 5.545zm-16.637 0a2.772 2.772 0 110-5.545 2.772 2.772 0 010 5.545zm-16.636 0a2.772 2.772 0 11-.001-5.545 2.772 2.772 0 010 5.545zm-16.637 0a2.772 2.772 0 110-5.545 2.772 2.772 0 010 5.545zm-16.636 0a2.772 2.772 0 110-5.545 2.772 2.772 0 010 5.545zm-16.636 0a2.772 2.772 0 11-.001-5.545 2.772 2.772 0 010 5.545zm116.454-16.631a2.772 2.772 0 110-5.543 2.772 2.772 0 010 5.543zm-16.636 0a2.772 2.772 0 110-5.545 2.772 2.772 0 010 5.545zm-16.636 0a2.772 2.772 0 11-.002-5.544 2.772 2.772 0 01.001 5.544zm-16.637 0a2.772 2.772 0 11-.001-5.544 2.772 2.772 0 01.001 5.544zm-16.636 0a2.772 2.772 0 11-.001-5.544 2.772 2.772 0 010 5.544zm-16.637 0a2.772 2.772 0 110-5.544 2.772 2.772 0 010 5.544zm-16.636 0a2.772 2.772 0 11-.001-5.544 2.772 2.772 0 01.001 5.544zm-16.636 0a2.772 2.772 0 11-.002-5.544 2.772 2.772 0 01.002 5.544zm116.454-16.63a2.772 2.772 0 110-5.544 2.772 2.772 0 010 5.544zm-16.636 0a2.773 2.773 0 110-5.545 2.773 2.773 0 010 5.545zm-16.636 0a2.772 2.772 0 11-.001-5.545 2.772 2.772 0 010 5.545zm-16.637 0a2.772 2.772 0 110-5.545 2.772 2.772 0 010 5.545zm-16.636 0a2.772 2.772 0 11-.001-5.545 2.772 2.772 0 010 5.545zm-16.637 0a2.772 2.772 0 110-5.545 2.772 2.772 0 010 5.545zm-16.636 0a2.772 2.772 0 110-5.545 2.772 2.772 0 010 5.545zm-16.636 0a2.772 2.772 0 11-.001-5.545 2.772 2.772 0 010 5.545zm116.454-16.63a2.772 2.772 0 110-5.544 2.772 2.772 0 010 5.544zm-16.636 0a2.773 2.773 0 110-5.545 2.773 2.773 0 010 5.545zm-16.636 0a2.772 2.772 0 11-.001-5.545 2.772 2.772 0 010 5.545zm-16.637 0a2.772 2.772 0 110-5.545 2.772 2.772 0 010 5.545zm-16.636 0a2.772 2.772 0 11-.001-5.545 2.772 2.772 0 010 5.545zm-16.637 0a2.772 2.772 0 110-5.545 2.772 2.772 0 010 5.545zm-16.636 0a2.772 2.772 0 110-5.545 2.772 2.772 0 010 5.545zm-16.636 0a2.772 2.772 0 11-.001-5.545 2.772 2.772 0 010 5.545zm116.454-16.631a2.772 2.772 0 110-5.544 2.772 2.772 0 010 5.544zm-16.636 0a2.773 2.773 0 110-5.545 2.773 2.773 0 010 5.545zm-16.636 0a2.772 2.772 0 11-.001-5.545 2.772 2.772 0 010 5.545zm-16.637 0a2.772 2.772 0 110-5.545 2.772 2.772 0 010 5.545zm-16.636 0a2.772 2.772 0 11-.001-5.545 2.772 2.772 0 010 5.545zm-16.637 0a2.772 2.772 0 110-5.545 2.772 2.772 0 010 5.545zm-16.636 0a2.772 2.772 0 110-5.545 2.772 2.772 0 010 5.545zm-16.636 0a2.772 2.772 0 11-.001-5.545 2.772 2.772 0 010 5.545zm116.454-16.63a2.772 2.772 0 110-5.544 2.772 2.772 0 010 5.544zm-16.636 0a2.773 2.773 0 110-5.545 2.773 2.773 0 010 5.545zm-16.636 0a2.772 2.772 0 11-.001-5.545 2.772 2.772 0 010 5.545zm-16.637 0a2.772 2.772 0 110-5.545 2.772 2.772 0 010 5.545zm-16.636 0a2.772 2.772 0 11-.001-5.545 2.772 2.772 0 010 5.545zm-16.637 0a2.772 2.772 0 110-5.545 2.772 2.772 0 010 5.545zm-16.636 0a2.772 2.772 0 110-5.545 2.772 2.772 0 010 5.545zm-16.636 0a2.772 2.772 0 11-.001-5.545 2.772 2.772 0 010 5.545zm116.454-16.63a2.772 2.772 0 110-5.544 2.772 2.772 0 010 5.543zm-16.636 0a2.772 2.772 0 110-5.546 2.772 2.772 0 010 5.545zm-16.636 0a2.772 2.772 0 11-.002-5.545 2.772 2.772 0 01.001 5.544zm-16.637 0a2.772 2.772 0 110-5.545 2.772 2.772 0 010 5.544zm-16.636 0a2.772 2.772 0 11-.001-5.545 2.772 2.772 0 010 5.544zm-16.637 0a2.772 2.772 0 110-5.545 2.772 2.772 0 010 5.544zm-16.636 0a2.772 2.772 0 110-5.545 2.772 2.772 0 010 5.544zm-16.636 0a2.772 2.772 0 11-.001-5.545 2.772 2.772 0 010 5.544zm116.454-16.631a2.772 2.772 0 110-5.544 2.772 2.772 0 010 5.544zm-16.636 0a2.773 2.773 0 110-5.545 2.773 2.773 0 010 5.545zm-16.636 0a2.772 2.772 0 11-.001-5.545 2.772 2.772 0 010 5.545zm-16.637 0a2.772 2.772 0 110-5.545 2.772 2.772 0 010 5.545zm-16.636 0a2.772 2.772 0 11-.001-5.545 2.772 2.772 0 010 5.545zm-16.637 0a2.772 2.772 0 110-5.545 2.772 2.772 0 010 5.545zm-16.636 0a2.772 2.772 0 110-5.545 2.772 2.772 0 010 5.545zm-16.636 0a2.772 2.772 0 11-.001-5.545 2.772 2.772 0 010 5.545zm116.454-16.63a2.772 2.772 0 110-5.544 2.772 2.772 0 010 5.543zm-16.636 0a2.772 2.772 0 110-5.546 2.772 2.772 0 010 5.545zm-16.636 0a2.772 2.772 0 11-.002-5.545 2.772 2.772 0 01.001 5.544zm-16.637 0a2.772 2.772 0 110-5.545 2.772 2.772 0 010 5.544zm-16.636 0a2.772 2.772 0 11-.001-5.545 2.772 2.772 0 010 5.544zm-16.637 0a2.772 2.772 0 110-5.545 2.772 2.772 0 010 5.544zm-16.636 0a2.772 2.772 0 110-5.545 2.772 2.772 0 010 5.544zm-16.636 0a2.772 2.772 0 11-.001-5.545 2.772 2.772 0 010 5.544zm116.454-16.631a2.772 2.772 0 110-5.544 2.772 2.772 0 010 5.544zm-16.636 0a2.772 2.772 0 110-5.545 2.772 2.772 0 010 5.545zm-16.636 0a2.772 2.772 0 11-.002-5.544 2.772 2.772 0 01.001 5.544zm-16.637 0a2.772 2.772 0 110-5.544 2.772 2.772 0 010 5.544zm-16.636 0a2.772 2.772 0 11-.001-5.544 2.772 2.772 0 010 5.544zm-16.637 0a2.772 2.772 0 110-5.545 2.772 2.772 0 010 5.545zm-16.636 0a2.772 2.772 0 110-5.544 2.772 2.772 0 010 5.544zm-16.636 0a2.772 2.772 0 11-.001-5.544 2.772 2.772 0 010 5.544zm116.454-16.63a2.772 2.772 0 110-5.544 2.772 2.772 0 010 5.543zm-16.636 0a2.773 2.773 0 110-5.546 2.773 2.773 0 010 5.545zm-16.636 0a2.772 2.772 0 11-.001-5.545 2.772 2.772 0 010 5.544zm-16.637 0a2.772 2.772 0 110-5.545 2.772 2.772 0 010 5.544zm-16.636 0a2.772 2.772 0 11-.001-5.545 2.772 2.772 0 010 5.544zm-16.637 0a2.772 2.772 0 110-5.545 2.772 2.772 0 010 5.544zm-16.636 0a2.772 2.772 0 110-5.545 2.772 2.772 0 010 5.544zm-16.636 0a2.772 2.772 0 11-.001-5.545 2.772 2.772 0 010 5.544z" fill="#242A30"/></svg>