<svg width="26" height="27" fill="none" xmlns="http://www.w3.org/2000/svg"><path d="M24.636 22.36c.665-6.39.665-12.83 0-19.22-.208-1.998-2.512-3.01-4.125-1.811l-6.155 4.575a11.25 11.25 0 01-6.712 2.221H1.901a1.5 1.5 0 00-1.5 1.5v6.25a1.5 1.5 0 001.5 1.5h5.743c2.418 0 4.771.78 6.712 2.222l6.155 4.575c1.613 1.199 3.917.187 4.125-1.812z" fill="url(#paint0_linear)"/><path d="M8.52 20.703A1.125 1.125 0 007.43 19.3h-3c-.425 0-.815.241-1.005.622l-1.5 3a1.125 1.125 0 00.394 1.447l3.2 2.076a1.125 1.125 0 001.703-.665l1.299-5.076z" fill="url(#paint1_linear)"/><defs><linearGradient id="paint0_linear" x1="12.768" y1=".813" x2="12.768" y2="26.625" gradientUnits="userSpaceOnUse"><stop stop-color="#FCC1AE"/><stop offset="1" stop-color="#FF84EB"/></linearGradient><linearGradient id="paint1_linear" x1="12.768" y1=".813" x2="12.768" y2="26.625" gradientUnits="userSpaceOnUse"><stop stop-color="#FCC1AE"/><stop offset="1" stop-color="#FF84EB"/></linearGradient></defs></svg>