<svg width="30" height="29" fill="none" xmlns="http://www.w3.org/2000/svg"><path fill-rule="evenodd" clip-rule="evenodd" d="M25.35 28.25H5.85A5.25 5.25 0 01.6 23V3.415C.6 1.814 2.185.8 3.579 1.282c.199.07.394.17.58.302l.263.188a3.765 3.765 0 004.369-.007 5.28 5.28 0 016.122 0 3.765 3.765 0 004.368.007l.263-.188C21.032.52 23.1 1.585 23.1 3.415V14.75h5.25c.62 0 1.125.504 1.125 1.125v8.25a4.125 4.125 0 01-4.125 4.125zM23.477 17v7.125a1.875 1.875 0 003.75 0V17h-3.75zM17.1 10.625c0-.621-.504-1.125-1.125-1.125h-9a1.125 1.125 0 000 2.25h9c.62 0 1.125-.503 1.125-1.125zm-1.5 4.5c0-.621-.504-1.125-1.125-1.125h-7.5a1.125 1.125 0 000 2.25h7.5c.62 0 1.125-.503 1.125-1.125zm.375 3.375a1.125 1.125 0 010 2.25h-9a1.125 1.125 0 010-2.25h9z" fill="url(#paint0_linear)"/><defs><linearGradient id="paint0_linear" x1="15.038" y1=".787" x2="15.038" y2="28.25" gradientUnits="userSpaceOnUse"><stop stop-color="#FCCFAE"/><stop offset="1" stop-color="#FFA95A"/></linearGradient></defs></svg>