<svg width="32" height="32" fill="none" xmlns="http://www.w3.org/2000/svg"><path d="M4.177 20.965c4.32 4.321 11.143 4.615 15.804.882l9.067 9.067a1.32 1.32 0 001.866-1.866l-9.067-9.067c2.618-3.269 3.255-7.601 1.912-11.388l-7.594 6.328-3.088-3.603-5.365 5.364a1.266 1.266 0 01-1.79-1.79l7.298-7.299 3.242 3.783 6.157-5.13a11.907 11.907 0 00-1.654-2.069C16.33-.459 8.813-.459 4.177 4.177c-4.636 4.636-4.636 12.152 0 16.788z" fill="url(#paint0_linear)"/><defs><linearGradient id="paint0_linear" x1="16" y1=".7" x2="16" y2="31.3" gradientUnits="userSpaceOnUse"><stop stop-color="#FFC56D"/><stop offset="1" stop-color="#FFA048"/></linearGradient></defs></svg>