<svg width="26" height="31" fill="none" xmlns="http://www.w3.org/2000/svg"><path fill-rule="evenodd" clip-rule="evenodd" d="M.444 11.316A12.057 12.057 0 0112.46.25h.648c6.274 0 11.5 4.813 12.015 11.066a13.04 13.04 0 01-2.9 9.325l-7.19 8.793a2.905 2.905 0 01-4.498 0l-7.19-8.793a13.04 13.04 0 01-2.901-9.325zm17.635-.52a1.125 1.125 0 00-1.59-1.591l-4.455 4.454-2.205-2.205a1.125 1.125 0 00-1.59 1.591l3 3c.438.44 1.15.44 1.59 0l5.25-5.25z" fill="url(#paint0_linear)"/><defs><linearGradient id="paint0_linear" x1="12.784" y1=".25" x2="12.784" y2="30.5" gradientUnits="userSpaceOnUse"><stop stop-color="#FCAEC7"/><stop offset="1" stop-color="#FF8758"/></linearGradient></defs></svg>