<svg width="28" height="26" fill="none" xmlns="http://www.w3.org/2000/svg"><path fill-rule="evenodd" clip-rule="evenodd" d="M7.109 3.499v2.13l-2.54.206a3.915 3.915 0 00-3.551 3.277c-.063.387-.12.774-.17 1.162a.447.447 0 00.252.462l.115.054c8.144 3.856 17.895 3.856 26.038 0l.115-.054a.447.447 0 00.253-.462 40.134 40.134 0 00-.171-1.162 3.915 3.915 0 00-3.55-3.277l-2.541-.205V3.499c0-1.3-.95-2.403-2.236-2.596L17.293.63a20.625 20.625 0 00-6.118 0l-1.83.274A2.625 2.625 0 007.109 3.5zm9.85-.645a18.375 18.375 0 00-5.45 0l-1.83.274a.375.375 0 00-.32.371v1.973a85.237 85.237 0 019.75 0V3.499a.375.375 0 00-.32-.37l-1.83-.275z" fill="url(#paint0_linear)"/><path d="M27.912 13.414a.3.3 0 00-.424-.257c-8.357 3.7-18.151 3.7-26.508 0a.3.3 0 00-.423.257 40.319 40.319 0 00.461 8.589 3.915 3.915 0 003.55 3.276l2.808.227a85.11 85.11 0 0013.716 0l2.808-.227a3.915 3.915 0 003.55-3.276 40.39 40.39 0 00.462-8.59z" fill="url(#paint1_linear)"/><defs><linearGradient id="paint0_linear" x1="14.234" y1=".4" x2="14.234" y2="25.782" gradientUnits="userSpaceOnUse"><stop stop-color="#FCAEC7"/><stop offset="1" stop-color="#FF5A90"/></linearGradient><linearGradient id="paint1_linear" x1="14.234" y1=".4" x2="14.234" y2="25.782" gradientUnits="userSpaceOnUse"><stop stop-color="#FCAEC7"/><stop offset="1" stop-color="#FF5A90"/></linearGradient></defs></svg>