<svg width="41" height="36" viewBox="0 0 41 36" fill="none" xmlns="http://www.w3.org/2000/svg">
<path d="M6.43863 17.6904L0 13.8492L17.1517 0.978688C18.899 -0.332462 21.3376 -0.325421 23.0761 0.995117L40 13.9275L33.5614 17.7952L6.43863 17.6904Z" fill="#FAA515"/>
<path d="M34.3662 4.30522V17.0131L23.3618 23.0392L23.076 22.8217C21.3376 21.5012 18.899 21.4941 17.1517 22.8053L16.8756 23.0126L5.63379 16.9082V4.30522C5.63379 4.08922 5.81399 3.91406 6.0362 3.91406H33.9638C34.186 3.91406 34.3662 4.08922 34.3662 4.30522Z" fill="#F5F5F5"/>
<path d="M40.0015 13.9277V34.8936C40.0015 34.9547 39.9943 35.0141 39.9806 35.0712C39.9782 35.0814 39.9758 35.0916 39.9725 35.1017C39.9685 35.1158 39.9645 35.1299 39.9597 35.144C39.9548 35.1557 39.9508 35.1674 39.946 35.1792C39.9436 35.1862 39.9403 35.1933 39.9371 35.2003C39.9291 35.2183 39.921 35.2355 39.9114 35.2527C39.9098 35.2566 39.9082 35.2597 39.9057 35.2629C39.8856 35.2996 39.8623 35.3349 39.8357 35.3677C39.8317 35.374 39.8269 35.3802 39.8212 35.3865C39.8196 35.3888 39.8172 35.3912 39.8148 35.3935C39.8019 35.4084 39.789 35.4233 39.7746 35.4373C39.7625 35.4499 39.7496 35.4616 39.7367 35.4733L39.7359 35.4741L29.6144 29.1804L23.6627 23.2669L23.3633 23.0393L25.4116 21.9175L34.3677 17.0132L40.0015 13.9277Z" fill="#FFC107"/>
<path d="M16.8757 23.0128L16.573 23.2397L10.5038 29.1805L0.267203 35.4758C0.253521 35.4633 0.239839 35.4507 0.226962 35.4374C0.0861167 35.2966 0 35.105 0 34.8937V13.8496L5.6338 16.9084L13.6934 21.2847L14.6922 21.8268L16.8757 23.0128Z" fill="#FFC107"/>
<path d="M16.8757 23.0122L16.573 23.239L10.5038 29.1799L0.267203 35.4751C0.253521 35.4626 0.239839 35.4501 0.226962 35.4368C0.0861167 35.296 0 35.1043 0 34.8931V34.8634L14.6922 21.8262L16.8757 23.0122Z" fill="#FAA515"/>
<path d="M40.0002 34.8634V34.8932C40.0002 34.9542 39.9929 35.0136 39.9792 35.0707C39.9768 35.0809 39.9744 35.0911 39.9712 35.1013C39.9672 35.1153 39.9631 35.1294 39.9583 35.1435C39.9535 35.1552 39.9495 35.167 39.9446 35.1787C39.9422 35.1857 39.939 35.1928 39.9358 35.1998C39.9277 35.2178 39.9197 35.235 39.91 35.2522C39.9084 35.2562 39.9068 35.2593 39.9044 35.2624C39.8843 35.2992 39.8609 35.3344 39.8344 35.3672C39.8303 35.3735 39.8255 35.3798 39.8199 35.386C39.8183 35.3884 39.8159 35.3907 39.8134 35.3931C39.8006 35.4079 39.7877 35.4228 39.7732 35.4369C39.7611 35.4494 39.7482 35.4611 39.7354 35.4728L39.7346 35.4736C39.7338 35.4744 39.7338 35.4744 39.733 35.4752L29.4963 29.18L23.4271 23.2391L23.1245 23.0122L23.2428 22.9481L23.3619 23.0388L25.4102 21.917L40.0002 34.8634Z" fill="#FAA515"/>
<path d="M39.7328 35.4738C39.732 35.4746 39.732 35.4746 39.7312 35.4754C39.5888 35.5997 39.4004 35.6756 39.1936 35.6756H0.803251C0.608482 35.6756 0.430615 35.6083 0.29138 35.4965C0.282526 35.4902 0.273673 35.4832 0.265625 35.4754L9.69742 28.3978L16.5715 23.2393L16.8741 23.0124L17.1501 22.8051C17.9912 22.1745 18.9924 21.8483 19.9984 21.8272C21.0825 21.8053 22.1731 22.1362 23.0745 22.8215L23.2411 22.9482L23.3602 23.039L23.6596 23.2666L30.4161 28.3978L39.7328 35.4738Z" fill="#FFC107"/>
<path d="M24.283 15.2217C23.486 15.2217 23.0827 14.6383 23.0827 13.4716C23.1024 11.8415 21.7588 10.5047 20.0818 10.4856C18.4047 10.4665 17.0294 11.7725 17.0097 13.4026C16.9901 15.0327 18.3337 16.3695 20.0107 16.3886C20.9095 16.3989 21.7668 16.0215 22.3518 15.3582C22.7503 16.022 23.4929 16.4181 24.283 16.3884C26.6836 16.3884 26.6836 14.1927 26.6836 13.4716C26.6837 9.92776 23.7281 7.0548 20.0822 7.05469C16.4363 7.05458 13.4806 9.92749 13.4805 13.4714C13.4804 17.0153 16.436 19.8883 20.0819 19.8884C21.7948 19.8884 23.4408 19.2413 24.6719 18.0837C24.9102 17.8581 24.9153 17.4875 24.6833 17.2559C24.4513 17.0242 24.0701 17.0193 23.8317 17.2448C21.6847 19.2577 18.2653 19.1977 16.1944 17.1107C14.1236 15.0237 14.1853 11.7001 16.3324 9.68713C18.4795 7.6742 21.8988 7.73425 23.9697 9.82123C24.9421 10.8012 25.4849 12.1102 25.4833 13.4717C25.4833 14.7795 25.1809 15.2217 24.283 15.2217ZM20.0821 15.2217C19.0877 15.2217 18.2816 14.4382 18.2816 13.4716C18.2816 12.5051 19.0877 11.7216 20.0821 11.7216C21.0764 11.7216 21.8825 12.5051 21.8825 13.4716C21.8825 14.4382 21.0764 15.2217 20.0821 15.2217Z" fill="#455A64"/>
</svg>
