<svg width="40" height="40" viewBox="0 0 40 40" fill="none" xmlns="http://www.w3.org/2000/svg">
<path d="M20 0C8.95422 0 0 8.95422 0 20C0 31.0458 8.95422 40 20 40C31.0458 40 40 31.0458 40 20C40 8.95422 31.0458 0 20 0Z" fill="#3B5999"/>
<path d="M23.7745 12.5975H25.9456V8.81591C25.571 8.76438 24.2829 8.64844 22.7826 8.64844C15.9136 8.64844 17.7825 16.4277 17.509 17.5674H14.0537V21.7949H17.508V32.4322H21.7432V21.7959H25.0577L25.5839 17.5683H21.7422C21.9285 14.7698 20.9881 12.5975 23.7745 12.5975Z" fill="white"/>
</svg>
