<svg width="40" height="40" viewBox="0 0 40 40" fill="none" xmlns="http://www.w3.org/2000/svg">
<path d="M20 0C8.95422 0 0 8.95422 0 20C0 31.0458 8.95422 40 20 40C31.0458 40 40 31.0458 40 20C40 8.95422 31.0458 0 20 0Z" fill="#40B3E0"/>
<path d="M29.3909 11.5037L25.8186 29.5145C25.8186 29.5145 25.3191 30.7636 23.9452 30.164L15.7017 23.844L12.7042 22.3953L7.65828 20.6965C7.65828 20.6965 6.88391 20.4219 6.80891 19.8223C6.73391 19.2228 7.68328 18.8981 7.68328 18.8981L27.742 11.0294C27.742 11.0294 29.3908 10.305 29.3908 11.504" fill="white"/>
<path d="M13.9939 29.3132C13.9939 29.3132 13.7533 29.2907 13.4533 28.3413C13.1538 27.3921 11.6299 22.3962 11.6299 22.3962L23.7452 14.7024C23.7452 14.7024 24.4447 14.2777 24.4197 14.7024C24.4197 14.7024 24.5446 14.7774 24.1697 15.1271C23.7952 15.477 14.6525 23.6952 14.6525 23.6952" fill="#D2E5F1"/>
<path d="M19.5628 26.2679L16.3023 29.2407C16.3023 29.2407 16.0473 29.4341 15.7686 29.3129L16.3929 23.791" fill="#B5CFE4"/>
</svg>
