<svg viewBox="0 0 210 30" fill="none" xmlns="http://www.w3.org/2000/svg">
<path d="M130.982 19.9891C133.688 19.9891 135.881 17.7757 135.881 15.0454C135.881 12.315 133.688 10.1016 130.982 10.1016C128.276 10.1016 126.083 12.315 126.083 15.0454C126.083 17.7757 128.276 19.9891 130.982 19.9891Z" fill="white"/>
<path d="M13.809 21.6097H9.10548L5.30678 13.6305L4.70355 24.7355H0L1.4021 4.84521H5.80403L11.5102 16.962L17.2165 4.84521H21.6184L23.1183 24.7355H18.3169L17.7137 13.6305L13.809 21.6097Z" fill="#242A30"/>
<path d="M47.5326 14.8398C47.5326 16.2547 47.3288 17.5626 46.8315 18.78C46.3343 19.9975 45.731 21.0998 44.8262 22.0128C43.9295 22.9177 42.9268 23.7321 41.7204 24.2338C40.5221 24.7356 39.0222 25.04 37.4163 25.04C35.8185 25.04 34.4164 24.7356 33.1122 24.2338C31.8079 23.7321 30.8134 22.9177 29.9085 22.0128C29.0118 21.108 28.4086 19.9893 27.9032 18.78C27.5038 17.5708 27.2021 16.2547 27.2021 14.8398C27.2021 13.425 27.4059 12.117 27.9032 10.8996C28.3026 9.69038 29.0037 8.57987 29.9085 7.66679C30.8052 6.76194 31.8079 5.94757 33.1122 5.44579C34.3105 4.94401 35.8104 4.63965 37.4163 4.63965C39.014 4.63965 40.4161 4.94401 41.7204 5.44579C42.9187 5.94757 44.0192 6.76194 44.8262 7.66679C45.7229 8.57165 46.3261 9.69038 46.8315 10.8996C47.3369 12.1088 47.5326 13.4332 47.5326 14.8398ZM37.5222 21.2067C38.3211 21.2067 39.12 21.001 39.7232 20.7049C40.4243 20.4005 40.9215 19.8988 41.3209 19.3888C41.7204 18.78 42.1198 18.1795 42.3236 17.3652C42.5274 16.559 42.6252 15.7529 42.6252 14.7411C42.6252 13.8362 42.5274 12.9232 42.3236 12.117C42.1198 11.3109 41.8264 10.7022 41.3209 10.0934C40.9215 9.48473 40.3183 9.08166 39.7232 8.7773C39.0222 8.47294 38.3211 8.27551 37.5222 8.27551C36.6255 8.27551 35.9245 8.48116 35.2235 8.7773C34.6202 9.08166 34.0251 9.58344 33.6257 10.0934C33.2263 10.7022 32.8268 11.3027 32.6231 12.117C32.4193 12.9314 32.3214 13.7293 32.3214 14.7411C32.3214 15.646 32.4193 16.559 32.6231 17.3652C32.8268 18.1713 33.1203 18.78 33.6257 19.3888C34.0251 19.9975 34.6284 20.4005 35.2235 20.7049C35.9245 21.108 36.6255 21.2067 37.5222 21.2067Z" fill="#242A30"/>
<path d="M57.5351 22.6215C57.4373 23.4276 57.2335 24.3407 56.9319 25.1468C56.6302 25.953 56.2308 26.7591 55.6276 27.5735C55.1303 28.3796 54.4293 29.1858 53.6223 30.0001L50.3208 27.3761C51.1197 26.3643 51.8207 25.3525 52.2202 24.3489C52.7174 23.3371 52.9212 22.1279 52.9212 20.8118V4.84521H57.7226V19.9892C57.7389 20.9022 57.6411 21.8071 57.5351 22.6215Z" fill="#242A30"/>
<path d="M75.8518 20.9022H68.3441L67.1458 24.7355H62.1406L69.4446 4.84521H74.7514L82.0553 24.7355H77.0501L75.8518 20.9022ZM69.5424 17.069H74.6454L72.1428 8.68673L69.5424 17.069Z" fill="#242A30"/>
<path d="M150.001 0H88.9609V29.7861H150.001V0Z" fill="#F6155E"/>
<path d="M97.5594 22.6213V13.7373H95.7578V12.125H97.5594V11.6232C97.5594 10.011 97.9588 8.90046 98.7577 8.08609C99.5565 7.27995 100.657 6.97559 102.059 6.97559C102.556 6.97559 103.062 6.97559 103.559 7.0743C104.056 7.17301 104.456 7.27995 104.863 7.47737L104.66 8.99094C104.358 8.89223 103.958 8.78529 103.559 8.68658C103.16 8.58787 102.76 8.58787 102.255 8.58787C101.358 8.58787 100.657 8.79352 100.249 9.2953C99.85 9.79708 99.6462 10.5045 99.6462 11.615V12.1168H105.85V22.6213H103.844V13.7373H99.638V22.6213H97.5594Z" fill="white"/>
<path d="M114.777 13.836H114.28C113.481 13.836 112.878 13.9347 112.275 14.2391C111.671 14.5434 111.272 15.0452 110.873 15.6539V22.72H108.867V12.2155H110.767V14.2391C111.068 13.5316 111.468 13.0299 111.965 12.6268C112.462 12.2237 113.163 12.125 113.97 12.125C114.272 12.125 114.573 12.125 114.769 12.2237V13.836H114.777Z" fill="white"/>
<path d="M128.08 13.5316C127.476 13.5316 126.979 13.7373 126.58 14.0334C126.082 14.3378 125.683 14.7409 125.381 15.2426C125.479 15.8514 125.585 16.4519 125.585 17.1593V22.7118H123.58V17.1593C123.58 16.6575 123.58 16.1475 123.482 15.6457C123.384 15.2426 123.278 14.8396 123.083 14.5352C122.887 14.2308 122.683 13.9265 122.382 13.8278C122.08 13.6221 121.68 13.5234 121.281 13.5234C120.678 13.5234 120.181 13.7291 119.781 14.0252C119.382 14.3296 118.982 14.6339 118.681 15.037V22.7118H116.675V12.2155H118.575V13.7291C118.974 13.2273 119.471 12.7173 119.977 12.4129C120.474 12.1086 121.175 11.9111 121.876 11.9111C122.577 11.9111 123.18 12.1168 123.678 12.4129C124.175 12.816 124.574 13.3178 124.778 13.9265C125.178 13.2191 125.781 12.7173 126.278 12.4129C126.881 12.0098 127.582 11.9111 128.479 11.9111C129.18 11.9111 129.677 12.0098 130.183 12.3142C130.68 12.6186 130.982 12.9229 131.283 13.4247C131.585 13.9265 131.78 14.4365 131.886 15.037C131.984 15.6457 132.09 16.3531 132.09 17.0606V22.6213H130.085V17.1675C130.085 16.6657 130.085 16.1557 129.987 15.6539C129.889 15.2509 129.783 14.8478 129.588 14.5434C129.384 14.2391 129.188 13.9347 128.887 13.836C128.878 13.6304 128.585 13.5316 128.08 13.5316Z" fill="white"/>
<path d="M141.293 21.3052C141.09 21.5109 140.894 21.7083 140.69 21.914C140.486 22.1196 140.193 22.2183 139.891 22.4157C139.59 22.5144 139.288 22.7201 138.889 22.7201C138.489 22.8188 138.188 22.8188 137.788 22.8188C137.389 22.8188 136.989 22.7201 136.59 22.6132C136.191 22.5144 135.889 22.3088 135.693 22.0044C135.392 21.7988 135.196 21.5027 135.09 21.0996C134.886 20.6965 134.886 20.2934 134.886 19.8904C134.886 18.8786 135.188 18.1712 135.889 17.6694C136.59 17.1676 137.487 16.8632 138.587 16.8632C139.084 16.8632 139.484 16.7645 139.989 16.7645C140.486 16.7645 140.886 16.7645 141.293 16.7645V16.2627C141.293 15.3579 141.09 14.6504 140.69 14.1404C140.291 13.6387 139.688 13.433 138.791 13.433C138.294 13.433 137.788 13.5317 137.389 13.6387C136.892 13.7374 136.492 13.943 136.085 14.1404L135.587 12.7256C136.085 12.4212 136.688 12.1169 137.291 12.0181C137.894 11.9194 138.489 11.8125 139.19 11.8125C140.389 11.8125 141.391 12.2156 142.092 12.923C142.793 13.6304 143.193 14.7409 143.193 16.1558V22.5144H141.293V21.3052ZM138.391 21.4039C138.995 21.4039 139.492 21.3052 139.989 21.0009C140.486 20.6965 140.886 20.3922 141.293 19.9891V18.1794C140.894 18.1794 140.495 18.2781 140.095 18.2781C139.696 18.2781 139.296 18.3768 138.995 18.3768C138.693 18.3768 138.391 18.4755 138.098 18.5824C137.796 18.6812 137.601 18.7881 137.397 18.8868C137.193 18.9855 137.095 19.1912 136.9 19.3886C136.802 19.5942 136.696 19.7917 136.696 20.096C136.696 20.5978 136.794 21.0009 137.095 21.2065C137.487 21.3052 137.886 21.4039 138.391 21.4039Z" fill="white"/>
<path d="M169.733 23V8.07031H174.614C176.234 8.07031 177.451 8.40527 178.264 9.0752C179.084 9.74512 179.495 10.7363 179.495 12.0488C179.495 12.7461 179.296 13.3647 178.9 13.9048C178.503 14.438 177.963 14.8516 177.28 15.1455C178.086 15.3711 178.722 15.8018 179.187 16.4375C179.659 17.0664 179.895 17.8184 179.895 18.6934C179.895 20.0332 179.46 21.0859 178.592 21.8516C177.724 22.6172 176.497 23 174.911 23H169.733ZM171.702 16.0171V21.3901H174.952C175.868 21.3901 176.589 21.1543 177.116 20.6826C177.649 20.2041 177.916 19.5479 177.916 18.7139C177.916 16.916 176.938 16.0171 174.983 16.0171H171.702ZM171.702 14.438H174.675C175.537 14.438 176.224 14.2227 176.736 13.792C177.256 13.3613 177.516 12.7769 177.516 12.0386C177.516 11.2183 177.276 10.6235 176.798 10.2544C176.319 9.87842 175.591 9.69043 174.614 9.69043H171.702V14.438ZM184.581 23H182.684V7.25H184.581V23ZM187.124 17.3501C187.124 16.2632 187.335 15.2856 187.759 14.4175C188.19 13.5493 188.785 12.8794 189.543 12.4077C190.309 11.936 191.181 11.7002 192.158 11.7002C193.669 11.7002 194.889 12.2231 195.819 13.269C196.755 14.3149 197.224 15.7061 197.224 17.4424V17.5757C197.224 18.6558 197.015 19.6265 196.598 20.4878C196.188 21.3423 195.597 22.0088 194.824 22.4873C194.059 22.9658 193.177 23.2051 192.179 23.2051C190.675 23.2051 189.455 22.6821 188.518 21.6362C187.588 20.5903 187.124 19.2061 187.124 17.4834V17.3501ZM189.031 17.5757C189.031 18.8062 189.314 19.7939 189.882 20.5391C190.456 21.2842 191.222 21.6567 192.179 21.6567C193.143 21.6567 193.908 21.2808 194.476 20.5288C195.043 19.77 195.327 18.7104 195.327 17.3501C195.327 16.1333 195.036 15.1489 194.455 14.397C193.881 13.6382 193.115 13.2588 192.158 13.2588C191.222 13.2588 190.466 13.6313 189.892 14.3765C189.318 15.1216 189.031 16.188 189.031 17.5757ZM199.151 17.3604C199.151 15.6309 199.551 14.2568 200.351 13.2383C201.151 12.2129 202.21 11.7002 203.53 11.7002C204.883 11.7002 205.939 12.1787 206.698 13.1357L206.791 11.9053H208.523V22.7334C208.523 24.1689 208.096 25.3003 207.242 26.1274C206.394 26.9546 205.252 27.3682 203.817 27.3682C203.017 27.3682 202.234 27.1973 201.469 26.8555C200.703 26.5137 200.119 26.0454 199.715 25.4507L200.7 24.3125C201.513 25.3174 202.508 25.8198 203.684 25.8198C204.606 25.8198 205.324 25.5601 205.837 25.0405C206.356 24.521 206.616 23.7896 206.616 22.8462V21.8926C205.857 22.7676 204.822 23.2051 203.509 23.2051C202.21 23.2051 201.158 22.6821 200.351 21.6362C199.551 20.5903 199.151 19.165 199.151 17.3604ZM201.059 17.5757C201.059 18.8267 201.315 19.811 201.828 20.5288C202.34 21.2397 203.058 21.5952 203.981 21.5952C205.177 21.5952 206.056 21.0518 206.616 19.9648V14.8994C206.035 13.8398 205.164 13.3101 204.001 13.3101C203.079 13.3101 202.357 13.6689 201.838 14.3867C201.318 15.1045 201.059 16.1675 201.059 17.5757Z" fill="#242A30"/>
</svg>
