<svg width="145" height="29" viewBox="0 0 145 29" fill="none" xmlns="http://www.w3.org/2000/svg">
<g opacity="0.3">
<path d="M125.742 19.3224C128.34 19.3224 130.446 17.1829 130.446 14.5435C130.446 11.9042 128.34 9.76465 125.742 9.76465C123.145 9.76465 121.039 11.9042 121.039 14.5435C121.039 17.1829 123.145 19.3224 125.742 19.3224Z" fill="white"/>
<path d="M13.2569 20.8899H8.74143L5.0946 13.1769L4.51549 23.9115H0L1.34604 4.68457H5.57198L11.05 16.3972L16.5281 4.68457H20.754L22.194 23.9115H17.5846L17.0055 13.1769L13.2569 20.8899Z" fill="white"/>
<path d="M45.6348 14.3443C45.6348 15.712 45.4391 16.9763 44.9617 18.1531C44.4844 19.33 43.9053 20.3955 43.0366 21.2781C42.1757 22.1528 41.2132 22.94 40.055 23.425C38.9046 23.9101 37.4646 24.2043 35.9229 24.2043C34.3891 24.2043 33.043 23.9101 31.7909 23.425C30.5388 22.94 29.584 22.1528 28.7154 21.2781C27.8545 20.4034 27.2754 19.322 26.7902 18.1531C26.4067 16.9843 26.1172 15.712 26.1172 14.3443C26.1172 12.9767 26.3128 11.7124 26.7902 10.5355C27.1737 9.36664 27.8467 8.29318 28.7154 7.41055C29.5762 6.53588 30.5388 5.74867 31.7909 5.26363C32.9413 4.77858 34.3812 4.48438 35.9229 4.48438C37.4568 4.48438 38.8028 4.77858 40.055 5.26363C41.2053 5.74867 42.2618 6.53588 43.0366 7.41055C43.8974 8.28523 44.4765 9.36664 44.9617 10.5355C45.4469 11.7044 45.6348 12.9846 45.6348 14.3443ZM36.0247 20.4988C36.7916 20.4988 37.5585 20.3001 38.1376 20.0138C38.8106 19.7196 39.288 19.2345 39.6715 18.7415C40.055 18.1531 40.4384 17.5727 40.6341 16.7855C40.8297 16.0062 40.9236 15.227 40.9236 14.2489C40.9236 13.3742 40.8297 12.4916 40.6341 11.7124C40.4384 10.9331 40.1567 10.3447 39.6715 9.75627C39.288 9.16785 38.7089 8.77822 38.1376 8.48402C37.4646 8.18981 36.7916 7.99897 36.0247 7.99897C35.1638 7.99897 34.4908 8.19776 33.8178 8.48402C33.2387 8.77822 32.6674 9.26327 32.2839 9.75627C31.9005 10.3447 31.517 10.9252 31.3214 11.7124C31.1257 12.4996 31.0318 13.2709 31.0318 14.2489C31.0318 15.1236 31.1257 16.0062 31.3214 16.7855C31.517 17.5647 31.7987 18.1531 32.2839 18.7415C32.6674 19.33 33.2465 19.7196 33.8178 20.0138C34.4908 20.4034 35.1638 20.4988 36.0247 20.4988Z" fill="white"/>
<path d="M55.2339 21.8679C55.14 22.6472 54.9444 23.5298 54.6548 24.3091C54.3653 25.0883 53.9818 25.8676 53.4027 26.6548C52.9253 27.434 52.2523 28.2133 51.4776 29.0005L48.3081 26.4639C49.075 25.4859 49.7481 24.5078 50.1315 23.5378C50.6089 22.5597 50.8045 21.3908 50.8045 20.1186V4.68457H55.4139V19.3234C55.4296 20.206 55.3357 21.0807 55.2339 21.8679Z" fill="white"/>
<path d="M72.8154 20.206H65.6078L64.4574 23.9115H59.6523L66.6643 4.68457H71.7589L78.7708 23.9115H73.9657L72.8154 20.206ZM66.7582 16.5006H71.6571L69.2546 8.39796L66.7582 16.5006Z" fill="white"/>
<path d="M144.002 0H85.4023V28.7927H144.002V0Z" fill="white"/>
<path d="M93.6553 21.8671V13.2794H91.9258V11.7208H93.6553V11.2358C93.6553 9.6773 94.0388 8.60383 94.8057 7.81663C95.5726 7.03737 96.6291 6.74316 97.9751 6.74316C98.4525 6.74316 98.9377 6.74316 99.4151 6.83858C99.8925 6.934 100.276 7.03737 100.667 7.22821L100.472 8.6913C100.182 8.59588 99.7986 8.49251 99.4151 8.39709C99.0316 8.30167 98.6482 8.30167 98.163 8.30167C97.3021 8.30167 96.6291 8.50046 96.2378 8.98551C95.8543 9.47055 95.6587 10.1544 95.6587 11.2279V11.7129H101.614V21.8671H99.689V13.2794H95.6509V21.8671H93.6553Z" fill="#242A30"/>
<path d="M110.182 13.3746H109.704C108.937 13.3746 108.358 13.4701 107.779 13.7643C107.2 14.0585 106.816 14.5435 106.433 15.1319V21.9623H104.508V11.8082H106.331V13.7643C106.621 13.0804 107.004 12.5954 107.482 12.2057C107.959 11.8161 108.632 11.7207 109.407 11.7207C109.696 11.7207 109.986 11.7207 110.174 11.8161V13.3746H110.182Z" fill="#242A30"/>
<path d="M122.956 13.0801C122.377 13.0801 121.899 13.2789 121.516 13.5652C121.038 13.8594 120.655 14.249 120.365 14.7341C120.459 15.3225 120.561 15.9029 120.561 16.5868V21.9541H118.636V16.5868C118.636 16.1017 118.636 15.6087 118.542 15.1237C118.448 14.7341 118.346 14.3444 118.158 14.0502C117.971 13.756 117.775 13.4618 117.485 13.3664C117.196 13.1676 116.812 13.0722 116.429 13.0722C115.85 13.0722 115.372 13.271 114.989 13.5572C114.605 13.8514 114.222 14.1456 113.932 14.5353V21.9541H112.007V11.8079H113.831V13.271C114.214 12.7859 114.692 12.2929 115.177 11.9987C115.654 11.7045 116.327 11.5137 117 11.5137C117.673 11.5137 118.252 11.7125 118.73 11.9987C119.207 12.3883 119.591 12.8734 119.786 13.4618C120.17 12.778 120.749 12.2929 121.226 11.9987C121.805 11.6091 122.478 11.5137 123.339 11.5137C124.012 11.5137 124.489 11.6091 124.975 11.9033C125.452 12.1975 125.742 12.4917 126.031 12.9768C126.321 13.4618 126.509 13.9548 126.61 14.5353C126.704 15.1237 126.806 15.8075 126.806 16.4914V21.8666H124.881V16.5947C124.881 16.1097 124.881 15.6167 124.787 15.1316C124.693 14.742 124.591 14.3524 124.403 14.0582C124.208 13.764 124.02 13.4698 123.73 13.3743C123.723 13.1756 123.441 13.0801 122.956 13.0801Z" fill="#242A30"/>
<path d="M135.639 20.5951C135.444 20.7939 135.256 20.9847 135.06 21.1835C134.865 21.3823 134.583 21.4777 134.293 21.6685C134.004 21.7639 133.714 21.9627 133.331 21.9627C132.947 22.0582 132.658 22.0582 132.274 22.0582C131.891 22.0582 131.507 21.9627 131.124 21.8594C130.74 21.7639 130.451 21.5652 130.263 21.2709C129.973 21.0722 129.786 20.7859 129.684 20.3963C129.488 20.0066 129.488 19.617 129.488 19.2274C129.488 18.2493 129.778 17.5655 130.451 17.0805C131.124 16.5954 131.985 16.3012 133.041 16.3012C133.519 16.3012 133.902 16.2058 134.387 16.2058C134.865 16.2058 135.248 16.2058 135.639 16.2058V15.7207C135.639 14.8461 135.444 14.1622 135.06 13.6692C134.677 13.1842 134.098 12.9854 133.237 12.9854C132.759 12.9854 132.274 13.0808 131.891 13.1842C131.413 13.2796 131.03 13.4784 130.639 13.6692L130.161 12.3016C130.639 12.0074 131.218 11.7132 131.797 11.6177C132.376 11.5223 132.947 11.4189 133.62 11.4189C134.771 11.4189 135.733 11.8086 136.406 12.4924C137.079 13.1762 137.463 14.2497 137.463 15.6174V21.7639H135.639V20.5951ZM132.853 20.6905C133.432 20.6905 133.91 20.5951 134.387 20.3009C134.865 20.0066 135.248 19.7124 135.639 19.3228V17.5735C135.256 17.5735 134.872 17.6689 134.489 17.6689C134.106 17.6689 133.722 17.7643 133.432 17.7643C133.143 17.7643 132.853 17.8597 132.572 17.9631C132.282 18.0585 132.094 18.1619 131.899 18.2573C131.703 18.3527 131.609 18.5515 131.421 18.7423C131.327 18.9411 131.226 19.132 131.226 19.4262C131.226 19.9112 131.32 20.3009 131.609 20.4996C131.985 20.5951 132.368 20.6905 132.853 20.6905Z" fill="#242A30"/>
</g>
</svg>
