<svg width="41" height="36" fill="none" xmlns="http://www.w3.org/2000/svg"><path d="M6.439 17.69L0 13.85 17.152.978a4.94 4.94 0 015.924.016L40 13.927l-6.439 3.868L6.44 17.69z" fill="#FAA515"/><path d="M34.366 4.305v12.708L23.362 23.04l-.286-.217a4.939 4.939 0 00-5.924-.017l-.276.208-11.242-6.105V4.305c0-.216.18-.39.402-.39h27.928c.222 0 .402.174.402.39z" fill="#F5F5F5"/><path d="M40.002 13.928v20.966a.76.76 0 01-.042.25l-.014.035-.009.021a.635.635 0 01-.031.063.7.7 0 01-.131.174.427.427 0 01-.038.036l-.001.001-10.122-6.294-5.951-5.913-.3-.228 2.049-1.122 8.956-4.904L40 13.928zm-23.126 9.085l-.303.227-6.07 5.94L.268 35.477A.766.766 0 010 34.894V13.85l5.634 3.058 8.06 4.377.998.542 2.184 1.186z" fill="#FFC107"/><path d="M16.876 23.012l-.303.227-6.07 5.94L.268 35.476A.766.766 0 010 34.893v-.03l14.692-13.037 2.184 1.186zM40 34.863v.03a.76.76 0 01-.02.178l-.009.03a.882.882 0 01-.013.043l-.013.035a.703.703 0 01-.125.207l-.007.007a.683.683 0 01-.04.044l-.038.036-.002.002-10.237-6.295-6.069-5.94-.302-.228.118-.064.119.09 2.048-1.121L40 34.863z" fill="#FAA515"/><path d="M39.733 35.474l-.002.001a.815.815 0 01-.537.2H.804a.814.814 0 01-.538-.2l9.431-7.077 6.875-5.159.302-.227.276-.207a4.916 4.916 0 012.848-.978 4.914 4.914 0 013.076.994l.167.127.12.091.299.228 6.756 5.13 9.317 7.077z" fill="#FFC107"/><path d="M24.283 15.222c-.797 0-1.2-.584-1.2-1.75.02-1.63-1.324-2.967-3.001-2.986-1.677-.02-3.053 1.287-3.072 2.917-.02 1.63 1.324 2.966 3 2.986a3.075 3.075 0 002.342-1.03 2.155 2.155 0 001.931 1.03c2.4 0 2.4-2.196 2.4-2.917 0-3.544-2.955-6.417-6.6-6.417-3.647 0-6.602 2.872-6.602 6.416 0 3.544 2.955 6.417 6.6 6.417a6.703 6.703 0 004.59-1.804.574.574 0 00.012-.828.615.615 0 00-.851-.011c-2.147 2.013-5.567 1.953-7.638-.134a5.147 5.147 0 01.138-7.424c2.148-2.013 5.567-1.953 7.638.134a5.173 5.173 0 011.513 3.65c0 1.309-.302 1.75-1.2 1.75zm-4.2 0c-.995 0-1.801-.784-1.801-1.75 0-.967.806-1.75 1.8-1.75s1.8.783 1.8 1.75c0 .966-.806 1.75-1.8 1.75z" fill="#455A64"/></svg>