<svg width="145" height="29" fill="none" xmlns="http://www.w3.org/2000/svg"><g opacity=".3"><path d="M125.742 19.322c2.598 0 4.704-2.14 4.704-4.778 0-2.64-2.106-4.78-4.704-4.78-2.597 0-4.703 2.14-4.703 4.78 0 2.639 2.106 4.778 4.703 4.778zM13.257 20.89H8.74l-3.646-7.713-.58 10.735H0L1.346 4.684h4.226l5.478 11.712 5.478-11.712h4.226l1.44 19.227h-4.61l-.578-10.735-3.75 7.713zm32.378-6.546c0 1.368-.196 2.632-.673 3.81-.478 1.176-1.057 2.241-1.925 3.124-.861.875-1.824 1.662-2.982 2.147-1.15.485-2.59.78-4.132.78a11.23 11.23 0 01-4.132-.78c-1.252-.485-2.207-1.272-3.076-2.147-.86-.875-1.44-1.956-1.925-3.125-.383-1.169-.673-2.441-.673-3.809 0-1.367.196-2.632.673-3.808a8.078 8.078 0 011.925-3.125c.861-.875 1.824-1.662 3.076-2.147 1.15-.485 2.59-.78 4.132-.78 1.534 0 2.88.295 4.132.78a8.5 8.5 0 012.982 2.147c.86.874 1.44 1.956 1.925 3.125.485 1.168.673 2.449.673 3.808zm-9.61 6.155c.767 0 1.534-.199 2.113-.485.673-.294 1.15-.78 1.534-1.273.383-.588.766-1.168.962-1.956.196-.779.29-1.558.29-2.536 0-.875-.094-1.757-.29-2.537-.196-.779-.477-1.367-.962-1.956-.384-.588-.963-.978-1.534-1.272-.673-.294-1.346-.485-2.113-.485-.861 0-1.534.199-2.207.485-.58.294-1.15.78-1.534 1.272-.383.589-.767 1.17-.963 1.956-.195.788-.29 1.559-.29 2.537 0 .875.095 1.757.29 2.536.196.78.478 1.368.963 1.956.383.589.962.979 1.534 1.273.673.39 1.346.485 2.207.485zm19.209 1.369c-.094.78-.29 1.662-.58 2.441a9.395 9.395 0 01-1.251 2.346c-.478.779-1.15 1.558-1.925 2.345l-3.17-2.536c.767-.978 1.44-1.956 1.824-2.926.477-.978.672-2.147.672-3.42V4.686h4.61v14.638c.016.883-.078 1.758-.18 2.545zm17.581-1.662h-7.207l-1.15 3.706h-4.806l7.012-19.227h5.095l7.012 19.227h-4.805l-1.15-3.706zm-6.057-3.705h4.9l-2.403-8.103-2.497 8.103z" fill="#fff"/><path d="M144.002 0h-58.6v28.793h58.6V0z" fill="#fff"/><path d="M93.655 21.867V13.28h-1.73v-1.558h1.73v-.485c0-1.559.384-2.632 1.15-3.42.768-.779 1.824-1.073 3.17-1.073.478 0 .963 0 1.44.096.477.095.861.198 1.252.39l-.195 1.462c-.29-.095-.673-.198-1.057-.294-.383-.095-.767-.095-1.252-.095-.86 0-1.534.198-1.925.684-.384.485-.58 1.168-.58 2.242v.485h5.956v10.154h-1.925V13.28h-4.038v8.588h-1.996zm16.527-8.492h-.478c-.767 0-1.346.095-1.925.39-.579.293-.963.778-1.346 1.367v6.83h-1.925V11.808h1.823v1.956a3.89 3.89 0 011.151-1.558c.477-.39 1.15-.485 1.925-.485.289 0 .579 0 .767.095v1.559h.008zm12.774-.295c-.579 0-1.057.199-1.44.485a3.399 3.399 0 00-1.151 1.17c.094.588.196 1.168.196 1.852v5.367h-1.925v-5.367c0-.485 0-.978-.094-1.463-.094-.39-.196-.78-.384-1.074-.187-.294-.383-.588-.673-.684-.289-.198-.673-.294-1.056-.294-.579 0-1.057.199-1.44.485-.384.294-.767.589-1.057.978v7.42h-1.925V11.807h1.824v1.463c.383-.485.861-.978 1.346-1.272.477-.295 1.15-.485 1.823-.485s1.252.199 1.73.485c.477.39.861.874 1.056 1.463.384-.684.963-1.17 1.44-1.463.579-.39 1.252-.485 2.113-.485.673 0 1.15.095 1.636.39.477.293.767.588 1.056 1.073.29.485.478.978.579 1.558.094.589.196 1.272.196 1.956v5.376h-1.925v-5.272c0-.485 0-.978-.094-1.463-.094-.39-.196-.78-.384-1.074-.195-.294-.383-.588-.673-.684-.007-.198-.289-.294-.774-.294zm12.683 7.515l-.579.588c-.195.2-.477.295-.767.486-.289.095-.579.294-.962.294-.384.095-.673.095-1.057.095-.383 0-.767-.095-1.15-.199-.384-.095-.673-.294-.861-.588-.29-.199-.477-.485-.579-.875-.196-.39-.196-.779-.196-1.169 0-.978.29-1.662.963-2.146.673-.486 1.534-.78 2.59-.78.478 0 .861-.095 1.346-.095h1.252v-.485c0-.875-.195-1.559-.579-2.052-.383-.485-.962-.684-1.823-.684-.478 0-.963.096-1.346.2-.478.095-.861.293-1.252.484l-.478-1.367c.478-.295 1.057-.589 1.636-.684.579-.096 1.15-.2 1.823-.2 1.151 0 2.113.39 2.786 1.074s1.057 1.758 1.057 3.125v6.147h-1.824v-1.169zm-2.786.096c.579 0 1.057-.096 1.534-.39a6.564 6.564 0 001.252-.978v-1.75c-.383 0-.767.096-1.15.096-.383 0-.767.095-1.057.095-.289 0-.579.096-.86.2-.29.095-.478.198-.673.293-.196.096-.29.294-.478.485-.094.2-.195.39-.195.684 0 .485.094.875.383 1.074.376.095.759.19 1.244.19z" fill="#242A30"/></g></svg>