<svg viewBox="0 0 210 30" fill="none" xmlns="http://www.w3.org/2000/svg"><path d="M130.982 19.99c2.706 0 4.899-2.214 4.899-4.945 0-2.73-2.193-4.943-4.899-4.943s-4.899 2.213-4.899 4.943c0 2.73 2.193 4.944 4.899 4.944z" fill="#fff"/><path d="M13.809 21.61H9.105l-3.798-7.98-.603 11.105H0l1.402-19.89h4.402l5.706 12.117 5.707-12.117h4.401l1.5 19.89h-4.801l-.603-11.104-3.905 7.979zm33.724-6.77c0 1.415-.204 2.723-.702 3.94-.497 1.217-1.1 2.32-2.005 3.233-.897.905-1.9 1.72-3.106 2.22-1.198.503-2.698.807-4.304.807-1.597 0-3-.304-4.304-.806-1.304-.502-2.299-1.316-3.204-2.221-.896-.905-1.5-2.024-2.005-3.233-.4-1.21-.7-2.525-.7-3.94s.203-2.723.7-3.94c.4-1.21 1.1-2.32 2.006-3.233.896-.905 1.899-1.72 3.203-2.221 1.198-.502 2.698-.806 4.304-.806 1.598 0 3 .304 4.304.806a8.85 8.85 0 013.106 2.22c.897.906 1.5 2.024 2.005 3.234.506 1.209.702 2.533.702 3.94zm-10.01 6.367c.798 0 1.597-.206 2.2-.502.701-.304 1.199-.806 1.598-1.316.4-.609.799-1.21 1.003-2.024.203-.806.301-1.612.301-2.624 0-.905-.098-1.818-.301-2.624-.204-.806-.498-1.415-1.003-2.024-.4-.608-1.003-1.011-1.598-1.316-.7-.304-1.402-.501-2.2-.501-.898 0-1.599.205-2.3.501a5.007 5.007 0 00-1.597 1.316c-.4.61-.8 1.21-1.003 2.024-.204.814-.302 1.612-.302 2.624 0 .905.098 1.818.302 2.624s.497 1.415 1.003 2.024c.4.608 1.002 1.012 1.598 1.316.7.403 1.402.502 2.298.502zm20.012 1.415a11.37 11.37 0 01-.603 2.525 9.701 9.701 0 01-1.304 2.427c-.498.806-1.199 1.612-2.006 2.426l-3.301-2.624c.799-1.012 1.5-2.024 1.9-3.027.496-1.012.7-2.221.7-3.537V4.845h4.802V19.99c.016.913-.082 1.818-.188 2.633zm18.317-1.72h-7.508l-1.198 3.833H62.14l7.304-19.89h5.306l7.304 19.89H77.05l-1.198-3.833zm-6.31-3.833h5.103l-2.502-8.382-2.6 8.382z" fill="#242A30"/><path d="M150.001 0h-61.04v29.786H150V0z" fill="#F6155E"/><path d="M97.56 22.621v-8.884h-1.802v-1.612h1.801v-.502c0-1.612.4-2.723 1.199-3.537.799-.806 1.899-1.11 3.301-1.11.497 0 1.003 0 1.5.098.497.099.897.206 1.304.403l-.203 1.514a16.77 16.77 0 00-1.101-.304c-.399-.1-.799-.1-1.304-.1-.897 0-1.598.207-2.006.708-.399.502-.603 1.21-.603 2.32v.502h6.204V22.62h-2.006v-8.884h-4.206v8.884h-2.079zm17.217-8.785h-.497c-.799 0-1.402.099-2.005.403-.604.304-1.003.806-1.402 1.415v7.066h-2.006V12.216h1.9v2.023a4.024 4.024 0 011.198-1.612c.497-.403 1.198-.502 2.005-.502.302 0 .603 0 .799.099v1.612h.008zm13.303-.304c-.604 0-1.101.205-1.5.501a3.528 3.528 0 00-1.199 1.21c.098.608.204 1.209.204 1.916v5.553h-2.005v-5.553c0-.502 0-1.011-.098-1.513-.098-.403-.204-.806-.399-1.11-.196-.305-.4-.61-.701-.708-.302-.206-.702-.305-1.101-.305-.603 0-1.1.206-1.5.502-.399.305-.799.609-1.1 1.012v7.675h-2.006V12.216h1.9v1.513c.399-.502.896-1.012 1.402-1.316.497-.304 1.198-.502 1.899-.502a3.49 3.49 0 011.802.502c.497.403.896.905 1.1 1.514.4-.708 1.003-1.21 1.5-1.514.603-.403 1.304-.502 2.201-.502.701 0 1.198.099 1.704.403a2.98 2.98 0 011.1 1.11c.302.503.497 1.013.603 1.613.098.609.204 1.316.204 2.024v5.56h-2.005v-5.453c0-.502 0-1.012-.098-1.514-.098-.403-.204-.806-.399-1.11-.204-.305-.4-.61-.701-.708-.009-.206-.302-.304-.807-.304zm13.213 7.773l-.603.609c-.204.206-.497.304-.799.502-.301.098-.603.304-1.002.304-.4.099-.701.099-1.101.099-.399 0-.799-.099-1.198-.206-.399-.099-.701-.304-.897-.609-.301-.205-.497-.501-.603-.904-.204-.404-.204-.807-.204-1.21 0-1.011.302-1.719 1.003-2.22.701-.502 1.598-.807 2.698-.807.497 0 .897-.098 1.402-.098h1.304v-.502c0-.905-.203-1.613-.603-2.123-.399-.501-1.002-.707-1.899-.707-.497 0-1.003.099-1.402.206-.497.098-.897.304-1.304.501l-.498-1.414c.498-.305 1.101-.61 1.704-.708.603-.099 1.198-.206 1.899-.206 1.199 0 2.201.404 2.902 1.111.701.707 1.101 1.818 1.101 3.233v6.358h-1.9v-1.209zm-2.902.099c.604 0 1.101-.099 1.598-.403a6.844 6.844 0 001.304-1.012v-1.81c-.399 0-.798.1-1.198.1-.399 0-.799.098-1.1.098-.302 0-.604.099-.897.205-.302.1-.497.206-.701.305-.204.098-.302.304-.497.502-.098.205-.204.403-.204.707 0 .502.098.905.399 1.11.392.1.791.198 1.296.198z" fill="#fff"/><path d="M169.733 23V8.07h4.881c1.62 0 2.837.335 3.65 1.005.82.67 1.231 1.661 1.231 2.974 0 .697-.199 1.316-.595 1.856-.397.533-.937.947-1.62 1.24.806.226 1.442.657 1.907 1.293.472.628.708 1.38.708 2.255 0 1.34-.435 2.393-1.303 3.159-.868.765-2.095 1.148-3.681 1.148h-5.178zm1.969-6.983v5.373h3.25c.916 0 1.637-.236 2.164-.707.533-.479.8-1.135.8-1.97 0-1.797-.978-2.696-2.933-2.696h-3.281zm0-1.579h2.973c.862 0 1.549-.215 2.061-.646.52-.43.78-1.015.78-1.753 0-.82-.24-1.415-.718-1.785-.479-.376-1.207-.564-2.184-.564h-2.912v4.748zM184.581 23h-1.897V7.25h1.897V23zm2.543-5.65c0-1.087.211-2.064.635-2.933.431-.868 1.026-1.538 1.784-2.01.766-.471 1.638-.707 2.615-.707 1.511 0 2.731.523 3.661 1.569.936 1.046 1.405 2.437 1.405 4.173v.134c0 1.08-.209 2.05-.626 2.912a4.668 4.668 0 01-1.774 2c-.765.478-1.647.717-2.645.717-1.504 0-2.724-.523-3.661-1.569-.93-1.046-1.394-2.43-1.394-4.153v-.133zm1.907.226c0 1.23.283 2.218.851 2.963.574.745 1.34 1.118 2.297 1.118.964 0 1.729-.376 2.297-1.128.567-.759.851-1.819.851-3.179 0-1.217-.291-2.201-.872-2.953-.574-.759-1.34-1.138-2.297-1.138-.936 0-1.692.372-2.266 1.117-.574.746-.861 1.812-.861 3.2zm10.12-.216c0-1.73.4-3.103 1.2-4.122.8-1.025 1.859-1.538 3.179-1.538 1.353 0 2.409.479 3.168 1.436l.093-1.23h1.732v10.827c0 1.436-.427 2.567-1.281 3.394-.848.828-1.99 1.241-3.425 1.241-.8 0-1.583-.17-2.348-.512-.766-.342-1.35-.81-1.754-1.405l.985-1.139c.813 1.005 1.808 1.508 2.984 1.508.922 0 1.64-.26 2.153-.78.519-.519.779-1.25.779-2.194v-.953c-.759.875-1.794 1.312-3.107 1.312-1.299 0-2.351-.523-3.158-1.569-.8-1.046-1.2-2.471-1.2-4.276zm1.908.216c0 1.25.256 2.235.769 2.953.512.71 1.23 1.066 2.153 1.066 1.196 0 2.075-.543 2.635-1.63v-5.066c-.581-1.06-1.452-1.589-2.615-1.589-.922 0-1.644.359-2.163 1.077-.52.717-.779 1.78-.779 3.189z" fill="#242A30"/></svg>